<?xml version="1.0" encoding="utf-8"?>
<!-- Generator: Adobe Illustrator 19.1.0, SVG Export Plug-In . SVG Version: 6.00 Build 0)  -->
<svg version="1.1" xmlns="http://www.w3.org/2000/svg" xmlns:xlink="http://www.w3.org/1999/xlink" x="0px" y="0px"
	 viewBox="0 0 800 600" style="enable-background:new 0 0 800 600;" xml:space="preserve">
<style type="text/css">
	.st0{fill:#FFEB64;stroke:#808080;stroke-width:0.5;stroke-linecap:round;stroke-linejoin:round;}
	.st1{fill:#8EC79A;stroke:#808080;stroke-width:0.5;stroke-linecap:round;stroke-linejoin:round;}
	.st2{fill:#BACE6B;stroke:#808080;stroke-width:0.5;stroke-linecap:round;stroke-linejoin:round;}
	.st3{fill:#E89BBD;stroke:#808080;stroke-width:0.5;stroke-linecap:round;stroke-linejoin:round;}
	.st4{fill:#F8A758;stroke:#808080;stroke-width:0.5;stroke-linecap:round;stroke-linejoin:round;}
	.st5{fill:#AC8FC7;stroke:#808080;stroke-width:0.5;stroke-linecap:round;stroke-linejoin:round;}
	.st6{fill:#89B8E4;stroke:#808080;stroke-width:0.5;stroke-linecap:round;stroke-linejoin:round;}
	.st7{fill:#FBD165;stroke:#808080;stroke-width:0.5;stroke-linecap:round;stroke-linejoin:round;}
	.st8{font-family:'Roboto-Regular';}
	.st9{font-size:14px;}
</style>
<g id="Tanzania">
	<path class="st0" d="M359.502,457.283l-1.558-1.023l-1.743-0.632l-0.815,0.726l-0.612,0.695l-1.183,0.977l-0.747,1.27l0.934,2.258
		l-0.093,0.884l-0.353,1.527l-0.036,0.926l-0.176,0.659l-0.415,0.518l-0.742,0.486v0.345l-0.825,0.894l-0.586-0.424l-0.545-1.004
		l-1.209-1.02l-1.422-0.847l-1.178-0.481l-1.302-0.852l-1.281-1.291l-1.375-0.852l-1.611,0.444l-1.328,0.748l-1.276,0.167
		l-0.025-0.004l-1.319-0.231l-1.531-0.481l-1.702-0.178l-1.219,0.507l-1.183,0.69l-1.562,0.376l-2.086-0.146l-0.97-0.298
		l-0.773-0.544l-0.604-0.946l-0.864-1.877l-0.929-0.873l-2.823-2.002l-0.898-0.314l-0.446,0.084l-0.794,0.523l-0.431,0.136
		l-0.602-0.057l-1.043-0.314l-0.7,0.005l-0.332,0.162l-0.69,0.57l-0.457,0.157l-0.187-0.11l-1.471-0.58l-1.352-0.298l-0.457-0.183
		l-3.092-2.388l-2.511-2.492l-0.882-0.512l-0.975,0.042l-0.955,0.486l-0.773,0.82l-0.773-0.491l-3.751-1.416l-2.33-1.541
		l-0.368-0.073l-0.872,0.089l-0.368-0.131l-0.29-0.376l-0.156-0.757l-0.187-0.387l-0.695-0.747l-0.633-0.34l-3.595-0.303
		l-4.317-0.94l-1.886-0.151l-0.682-0.454l-0.721-1.107l-0.975-2.298l-0.55-0.7l-1.821-1.222l-2.029-0.501l-6.54,0.13l-1.069-0.136
		l-1.012-0.355l-0.988-0.736l-1.847-1.869l-0.464-0.25l0.02-0.327l-0.462-3.019l0.483-0.595l0.804-0.094l-0.649-2.043l-1.951-1.795
		l-1.131-0.803l-0.903-1.004l1.027-1.429l-1.785-1.857l-2.309-1.554l1.064-2.021l6.247-2.224l2.9-1.765l3.762-4.762l0.228-5.686
		l-0.866-2.733l0.171-2.873l1.847-2.216l3.082-0.109l6.304-4.253l1.313,0.612l0.213,1.005l-0.213,1.505l0.758,1.253l0.052,1.495
		l0.239,1.456l4.182,5.291l2.086,0.175l1.951-0.258l1.883,0.357l-0.389-3.306l-11.596-15.424l-2.356-2.361l-9.318-6.199
		l-13.485-7.029l-0.882-1.764l1.38-4.314l1.972-4.061l1.754-2.675l5.157-1.957l1.826-3.574l1.997-5.46l0.031-5.321l11.425-3.925
		l2.579-1.423l3.502,0.083l3.414-0.579l1.297-0.958l3.227-5.159l0.586-1.264l1.25-0.504l2.2,0.223l1.691-1.07l1.199-1.095
		l1.588-0.563l4.311-1.007l4.099,1.207l3.481,2.326l4.042,0.922l10.906-0.641l1.525,1.288l1.147,1.649l0.706,2.61l0.384,2.742
		l1.214,2.008l2.138,0.8l1.743,1.681l1.188,2.218l0.794,1.161l0.981,1.005l2.885,0.876l0.638,1.159l0.161,1.364l0.892,2.1
		l0.197,2.066l0.82,0.478l0.991,0.255l2.091,1.484l2.278,1.016l1.292,0.86l0.809,0.931l-0.716,1.396l-1.001,1.204l-1.375,3.229
		l-1.147,1.95l-1.365,1.802l-0.918,1.857l-0.436,2.052l0.726,1.467l1.925,0.255l23.358-1.173l2.579,0.208l7.43,1.753l1.852,1.293
		l2.143,0.7l13.594,2.162l0.498,1.525l-0.182,1.296l1.333,0.232l2.418-0.2l2.278,0.812l1.38,1.398l-1.214,1.642l-2.195,1.702
		l-2.76,0.82l-1.219,1.494l-1.811,4.174l-1.313,2.188l-1.774,1.357l-2.117,0.711l-1.842,1.711l-1.427,2.18l-1.048,2.095l0.799,2.048
		l1.074,1.566l0.815,1.725l-0.586,3.292l-1.261,3.287l-1.126,0.774l-1.645-0.193l-1.878,0.691l-1.614,1.129l-1.313,2.634
		l-1.764,1.87l-2.324,0.926l-2.589,0.055l-4.815-0.689l-5.012,1.221l-2.89,0.068l-2.937-0.266l-2.548,1.035l-0.514,1.45
		l-1.401,0.459L353,424.754l-2.734,0.54l-2.07,1.844l-2.88,4.683l0.291,2.401l1.671,1.923l1.162,2.138l0.846,2.282l-1.069,0.567
		l-0.27,1.049l1.707,0.379l0.55,0.671l0.135,1.582l1.126,1.452l2.745,4.73l1.52,2.074l0.934,0.405l1.017,0.138l2.018,2.017
		L359.502,457.283z"/>
	<path class="st1" d="M384.683,509.028l-0.034-0.272l0.104-0.65l0.467-1.138l0.109-0.482l-0.213-0.944l-0.965-1.609l-0.223-1.095
		l1.017-5.534l0.016-0.54l-0.109-0.629l-0.42-1.105l-0.477-2.692l-1.665-3.739l-0.384-1.728l0.104-0.503l0.446-0.99l0.104-0.581
		l-0.068-0.55l-0.586-1.733l-1.51-2.13l-0.571-1.041l-5.012-6.195l-0.057-0.209l-0.908-0.874l-0.228-0.126l-1.116-1.151
		l-0.291-0.403l-0.249-0.957l-0.125-0.905l-0.316-0.669l-1.5-0.544l-4.882-5.145l-1.453-0.664l-0.866-0.946l-0.379-0.219
		l-1.702-2.06l-0.695-0.387l-0.477-0.564l-0.066-0.043l0.196-1.652l-2.018-2.017l-1.017-0.138l-0.934-0.405l-1.52-2.074l-2.745-4.73
		l-1.126-1.452l-0.135-1.582l-0.55-0.671l-1.707-0.379l0.27-1.049l1.069-0.567l-0.846-2.282l-1.162-2.138l-1.671-1.923l-0.291-2.401
		l2.88-4.683l2.07-1.844l2.734-0.54l3.704,1.273l1.401-0.459l0.514-1.45l2.548-1.035l2.937,0.266l2.89-0.068l5.012-1.221
		l4.815,0.689l2.589-0.055l2.324-0.926l1.764-1.87l1.313-2.634l1.614-1.129l1.878-0.691l1.645,0.193l1.126-0.774l1.261-3.287
		l7.108,2.153v2.532l12.039,4.221l-0.56,9.009l4.76,3.379l4.76,0.282l3.667-1.213l0.949-0.454l0.835-0.705l1.079,0.514l3.44,5.232
		l9.5,7.448l0.69,2.298l0.151,2.4l-1.51,1.447l-1.806,1.309l-2.304,1.1l-1.915,1.202l-1.51,1.565l-1.904,1.236l-4.369,4.046
		l-3.253,1.743l-4.887,5.197l-3.658,1.501l-1.66,0.897l-0.482,1.381l0.929,1.371l1.11,1.041l0.763,1.805l-0.156,2.47l1.987,2.897
		l0.477,3.319l-4.223,5.856l-0.633,1.707l-1.805,0.377l-1.837-0.013l-1.697,0.613l-1.198,1.312l-0.259,3.332l-4.306,3.327
		l-3.704,1.811l-2.319,3.252l-4.343,2.789l-1.416,0.64l-1.572,0.102l-0.581-0.385l-0.623-0.136l-1.297,0.241L384.683,509.028z"/>
	<path class="st2" d="M384.683,509.028l0.107-0.004l1.297-0.241l0.623,0.136l0.581,0.385l1.572-0.102l1.416-0.64l4.343-2.789
		l2.319-3.252l3.704-1.811l4.306-3.327l0.259-3.332l1.198-1.312l1.697-0.613l1.837,0.013l1.805-0.377l0.633-1.707l4.223-5.856
		l-0.477-3.319l-1.987-2.897l0.156-2.47l-0.763-1.805l-1.11-1.041l-0.929-1.371l0.482-1.381l1.66-0.897l3.658-1.501l4.887-5.197
		l3.253-1.743l4.369-4.046l1.904-1.236l1.51-1.565l1.915-1.202l2.304-1.1l1.806-1.309l1.51-1.447l2.034-0.486l1.961-0.752
		l2.963-2.771l3.222-3.629l0.176,0.478l-0.327,0.478l0.01,0.83l0.233,1.029l0.171,3.596l0.566,1.779l0.866,1.685l-0.773,2.539
		l-2.034,1.85l-0.763,1.552l-0.202,1.599l0.467,1.069l-0.353,1.064l-1.723,2.13l-2.215,3.506l-0.965,0.797l-1.11,0.065l-0.804,0.656
		l-0.327,3.067l2.184,1.684l6.994-0.259l1.806,0.269l1.78-0.12l0.835-1.059l0.467-1.368l2.267-1.98l2.21-0.628l-0.145,0.641
		l0.368,0.384l0.462-0.131l0.27,0.426l1.339,0.8l4.379-1.124l3.061,0.518l4.156-0.596l0.291-0.225l1.297-1.354l2.221-3.14
		l0.451-1.263l-0.021-2.277l1.038-0.293l0.566-0.28l0.654,1.417l-0.052,1.642l1.562,3.848l2.023,3.692l-1.567,4.088l-2.74,3.574
		l1.271,2.402l3.409-0.092l4.644-2.548l4.031-3.498l2.895-3.445l3.336-2.994l3.959-2.505l1.614-0.721l4.472-3.333l3.736-1.095
		l-0.685,3.022l-1.199,2.941l-2.195,3.151l-3.834,4.221l-4.156,3.764l-1.276,2.771l-0.342,3.085l0.187,3.685l-0.15,3.644l2.48,2.116
		l12.136,4.644l27.872,6.794l2.35,1.698l1.515,0.852l1.365,1.082l1.235,2.053l0.54,1.193l0.337,1.12l1.292,2.242l0.716,2.381
		l0.861,1.306l1.116,1.254l2.501,4.618l1.572,10.319l3.466,11.997l0.002,0.008l-1.133-0.023l-2.869,0.489l-0.472,0.499l-0.446,0.116
		l-2.044,0.126l-0.83,0.2l-3.154,1.787l-0.342,0.442l-0.13,0.747l-0.773,2.298l-0.472,0.621l0.073,0.915l-1.204,2.141l-0.265,1.141
		l0.202,0.679l0.301,0.626l0.093,0.626l-0.41,0.679l-0.628,0.558l-1.043,0.731l-3.653,1.605l-2.236,1.789l-0.934,0.532l-1.074,0.189
		l-1.593,0.016l-1.09,0.211l-1.816,0.958l-1.048,0.221l-0.607,0.274l-0.389,0.632l-0.285,0.705l-0.28,0.505l-0.42,0.363
		l-0.337,0.179l-0.955,0.158h-1.147l-2.485-0.7l-0.41-0.205l-0.892-0.942l-0.581-0.274l-0.472,0.031l-0.389,0.19l-0.394,0.253
		l-0.488,0.221l-1.8,0.195l-2.19-0.237l-4.265-0.969l-1.764-0.847l-1.754-1.474l-1.365-1.705l-0.602-1.568l-0.789,0.463
		l-0.446,0.337l-0.472,0.205l-4.644,0.416l-0.742-0.142l-1.245-0.805l-0.991-0.074l-0.477-0.242l-0.851,0.284l-2.272,2.684
		l-1.396,2.048l-0.451,0.421l-0.576,0.305l-1.852,0.705l-0.488,0.4l-0.27,0.326l-0.368,0.232l-1.339,0.147l-0.747,0.258L484.224,570
		l-0.866-0.095l-1.261-0.627l-0.28-0.105l-0.316-0.268l-0.301-1.195l-0.394-0.274h-5.863l-0.239,0.11l-0.259,0.237l-0.348,0.237
		l-1.577,0.237l-1.826,0.521l-0.737,0.079l-0.519-0.147l-0.778-0.474l-0.602-0.105l-2.07,0.353l-0.576-0.4l-0.451-0.921
		l-0.151-1.047l0.322-0.763l-0.337-1.016l-0.114-1.153l-0.28-0.952l-0.809-0.389l-0.457-0.105l-0.342-0.263l-0.327-0.342
		l-0.42-0.332l-0.483-0.205l-1.11-0.289l-0.493-0.2l-1.832-1.126l-1.048-0.468l-0.721,0.047l-0.97,0.284l-0.939-0.495l-0.451-0.963
		l0.477-1.136l-0.867-1.047l-0.669-0.331l-1.894,0.021l-0.322-0.089l-1.422-0.605l-2.055-0.379l-0.664,0.452l-1.567,1.978
		l-0.887,0.694l-2.522,0.458l-0.923,0.547l0.389,1.115l-0.607,0.395l-0.555,0.679l-0.42,0.705l-0.353,1.047l-0.503,0.321
		l-2.708,0.71l-0.057-0.005l-1.178,0.663l-0.825-0.211l-0.809-0.321l-0.55,0.042l-0.062,0.874l-0.571-0.184l-0.228-0.284
		l-0.13-0.353l-0.27-0.384l-0.446-0.342l-0.233-0.026l-0.197,0.116l-0.327,0.095l-0.01,0.047l-0.669,0.268l-0.218,0.021
		l-1.235-0.058l-0.467-0.153l-0.332-0.326l-0.088-0.279l-2.096,0.058l-20.94-0.211l-0.083-0.442v-2.636l-0.114-0.742l-0.249-0.6
		l-0.239-0.458l-0.114-0.305l-0.213-0.374l-0.472-0.405l-0.472-0.536l-0.431-1.378l-0.939-0.778l-0.213-0.384l-0.379-1.047
		l-0.939-0.846l-1.214-0.636l-2.169-0.731l-0.41-0.053l-0.374,0.131l-0.638,0.557l-0.332,0.037l-0.322-0.389l-1.11-2.071
		l0.301-0.158l0.431-0.336l0.296-0.168v-0.315l-0.794-0.452l-0.654-0.746l-0.446-0.988l-0.161-1.161l-0.125-0.457l-0.311-0.394
		l-0.4-0.279l-0.908-0.226l-0.239-0.32l-0.156-0.447l-0.265-0.499l-2.392-2.054l-0.379-0.893l-0.145-1.245l-0.669-2.085l-0.218-1.04
		l0.249-1.281l1-1.281l0.463-0.593l0.924-2.074l0.109-0.525v-2.252l0.649-3.175l-0.192-1.328l0.306-0.43l0.612-0.456l-0.13-0.656
		l-0.301-0.362l-0.327-0.236l-0.213-0.289l-0.088-0.226l-0.316-0.467l0.664-1.07l-0.042-1.107l-0.477-1.023l-1.079-1.274
		l-0.135-0.299l0.042-0.975l-0.14-0.593l-0.177-0.051l-0.166-0.048l-0.436,0.026l-0.425-0.199l-0.405-0.577l-0.332-0.666
		l-0.234-0.703L384.683,509.028z"/>
	<path class="st3" d="M121.767,230.481l-0.955-3.994l-0.138-4.195l0.994-4.236l3.038-8.248l0.48-4.229l-0.182-1.985l-0.156-0.641
		l11.752-0.15l2.47,0.579l2.049,0.16l0.228,0.088l0.578-0.445l0.153-0.564l0.026-0.646l0.187-0.708l0.316-0.295l0.856-0.398
		l0.259-0.429l0.106-0.817l0.091-0.176l0.814-0.496l0.534,0.067l0.545,0.274l0.84,0.14l0.441-0.15l2.667-1.246l1.8-1.68l1.723-0.972
		l0.508-0.408l1.115-0.625l0.633-0.796l1.282-3.049l0.519-0.744l3.419-2.832l1.515-1.834l1.178-2.025l0.132-0.316l0.781-1.874
		l0.872-3.601l0.602-1.023l2.636-2.686l1.93-3.316l1.269-0.806l2.239,0.728l0.171-0.878l-0.156-0.78l-0.285-0.77l-0.213-0.842
		l0.055-0.929l0.002-0.037l0.353-0.899l2.07-3.238l0.376-0.93l0.018-0.914l-0.119-1.002l0.272-0.599l1.398-0.997l0.125-0.201
		l0.187-0.589l0.13-0.155l0.835-0.124l0.099,0.01l0.026,0.093l0.96-0.077l0.054-0.108l0.086-0.434l0.078-0.124l1.336-0.305
		l0.345-0.124l0.4-0.346l0.654-0.774l2.356-1.089l1.318-1.27l0.065-1.332l-1.515-0.822l-0.35-0.19l0.924-1.105l0.947-0.878
		l1.108-0.682l1.372-0.516l0.617-0.077l0.49-0.274l0.322-0.449l0.153-0.594l1.328,0.656l1.393-0.155l1.209-0.821l0.758-1.342
		l-0.026-0.289l-0.223-0.888l-0.026-0.367l0.711-1.007l0.436-1.192l0.088-0.625l-0.052-0.63l-0.208-0.356l-0.651-0.475l-0.179-0.377
		l0.042-0.289l0.239-0.666l-0.008-0.263l-0.495-0.692l-1.235-1.156l-0.249-0.733l0.332-0.795l1.554-1.781l0.15-0.267l1.323-0.696
		l1.007-1.128l0.929-1.288l4.939-4.469l2.112,0.836l1.173,2.214l0.057,0.782l0.379,0.604l0.405,0.17l0.233,0.382l0.109,3.775
		l-1.401,3.582l-1.899,2.919l-0.099,2.764l0.441,0.516l0.612,0.01l0.721-0.847l0.949-0.601l2.641,1.941l0.566,3.595l1.276,3.474
		l0.924,1.719l1.074,1.603l0.005-0.017l0.068,0.133l0.861,1.693l-0.161,1.854l0.213,1.585l0.462,1.725l0.114,3.432l1.219,3.13
		l2.817,2.67l3.03,6.627l0.882,4.089l-0.275,2.428l-1.665,4.617l-0.14,2.467l0.41,1.535l0.208,1.584l0.597,0.747l0.161,0.879
		l1.074,2.594l1.66,2.621l0.021,2.321l0.353,2.267l1.391-0.14l0.607,1.228l0.462,3.743l0.898,3.798l-0.778,2.273l-0.446,0.494
		l-2.802,1.042l-0.944,0.646l-0.254,0.887l0.545,5.242l-0.405,0.605l-2.309,1.076l-0.897,0.553l-0.192,0.336l-0.197,0.786
		l-0.223,0.339l-0.353,0.22l-1.152,0.385l-2.496,1.891l-0.316,0.171l0.327,0.83l0.597,0.781l0.218,1.34l-2.438,6.75l-0.441,5.778
		l1.873,7.949l-0.934,1.74l-3.616,0.813l-3.886,1.033l-1.219-4.057l-0.472-0.65l-0.856-0.898l-0.218-0.326l-0.607-1.242
		l-0.384-0.401l-0.389-0.326l-0.353-0.388l-0.275-0.595l-0.187-2.148l-0.306-0.901l-0.866-0.37l-0.877,0.419l-1.09,2.001
		l-0.758,0.688l-1.074-0.823l-1.484-2.102l-1.245-0.867l-0.332-0.044l-0.747,0.101l-0.322-0.057l-0.342-0.303l-0.685-1.097
		l-1.593-1.001l-2.288-0.15l-13.837,0.088l-1.723,1.19l-3.243,3.657l-1.987,1.693l-2.459,0.569l-10.735,0.13l-0.892,1.123
		l4.561,3.846l1.925,4.328l3.284,19.082l1.432,4.109l3.03,5.608l1.551,4.321l2.324,1.392l1.614,1.833l-0.524,3.132l0.887,2.038
		l0.176,2.271l-4.758,3.242l-1.494,4.409l-1.297,1.738l-11.954,9.945l-1.787,1.219l-4.82-2.452l-6.75-5.112l-1.588-1.66
		l-1.136-1.899l-2.532-6.754l-3.409-4.388l-1.422-2.365l-0.612-1.97l-0.838-5.988l-1.512-5.614l-0.13-1.99l1.001-3.182l3.756-5.047
		l1.614-2.823l0.472-3.875l-0.949-4.211l-4.877-11.453l-2.044-8.101l-3.907-7.131l-1.686-4.082L121.767,230.481z"/>
	<path class="st1" d="M169.541,338.284l-3.001-4.638l-7.22-8.396l-3.922-3.255l-2.189-1.114l1.787-1.219l11.954-9.945l1.297-1.738
		l1.494-4.409l4.758-3.242l-0.176-2.271l-0.887-2.038l0.524-3.132l-1.614-1.833l-2.324-1.392l-1.551-4.321l-3.03-5.608l-1.432-4.109
		l-3.284-19.082l-1.925-4.328l-4.561-3.846l0.892-1.123l10.735-0.13l2.459-0.569l1.987-1.693l3.243-3.657l1.723-1.19l13.837-0.088
		l2.288,0.15l1.593,1.001l0.685,1.097l0.342,0.303l0.322,0.057l0.747-0.101l0.332,0.044l1.245,0.867l1.484,2.102l1.074,0.823
		l0.758-0.688l1.09-2.001l0.877-0.419l0.866,0.37l0.306,0.901l0.187,2.148l0.275,0.595l0.353,0.388l0.389,0.326l0.384,0.401
		l0.607,1.242l0.218,0.326l0.856,0.898l0.472,0.65l1.219,4.057l-0.135,1.245l-1.437,0.797l-0.031,0.582l0.145,0.596l0.348,0.808
		l0.176,0.155l0.228,0.07l3.331,2.519l0.291,0.119l0.7-0.031l0.239,0.083l0.156,0.334l-0.026,0.318l-0.13,0.373l0.254,0.435
		l0.187,0.477l0.213,0.831l-0.342,1.15l0.057,0.254l0.234,0.474l0.052,0.3l-0.265,0.717l0.109,0.347l0.669,0.148l0.955-0.194
		l1.012-0.357l1.022-0.171l0.986,0.35l0.965,1.691l0.732,0.754l0.892-0.189l0.949-0.388l2.075,0.233l0.929-0.358l1.857,1.155
		l0.981,0.422l1.121,0.163l1.012-0.181l0.955-0.308l0.866-0.062l0.752,0.552l0.524-0.777l0.55-0.13l3.751,1.14l0.519-0.078
		l0.56-0.326l1.889-0.743l0.649-0.142l0.01-0.155l0.285-0.347l0.545-0.523l0.389-0.254l1.017-0.433l1.064-0.769l0.981-0.901
		l1.11-0.751l1.484-0.316l0.296,0.093l0.265,0.225l0.472,0.523l0.291,0.15l0.218-0.096l0.182-0.163l0.182-0.047l1.188,0.598
		l2.324,0.451l0.877,0.047l0.783-0.412v0.342l2.89,0.894l1.064,0.132l0.301,0.199l0.197,0.477l0.156,0.565l0.187,0.471l0.4,0.466
		l0.96,0.852l0.358,0.422l0.208,0.982l-0.036,2.466l0.327,0.832l0.638,0.909l0.887,3.371l0.84,1.816l1.167,1.708l1.281,1.415
		l1.198,0.943l2.599,1.384l0.685,0.498l0.301,0.163l0.638,0.101l0.296,0.249l0.047,0.228l-0.093,0.575l0.047,0.225l0.529,0.783
		l0.285,0.264l0.524,0.353l1.764,0.772l0.944,0.695l1.121,0.171l0.488,0.215l0.737,0.736l1.831,2.891l1.541,1.584l2.06,0.783
		l7.295,0.628l0.867,0.487l0.239,1.045l0.451,0.677l0.374,0.713l-0.296,0.954l-0.488,0.897l-1.007,1.299l-1.411,0.83l-2.952,3.725
		l-1.458,4.631l-0.244,5.221l0.317,5.233l-0.524,5.138l-1.188,5.038l-2.579,1.423l-11.425,3.925l-0.031,5.321l-1.997,5.46
		l-1.826,3.574l-5.157,1.957l-1.754,2.675l-1.972,4.061l-1.38,4.314l0.882,1.764l-11.207-1.878l-8.203-1.096l-6.562-1.096
		l-1.094-7.125l-1.094-7.671l-0.547-5.477l-2.734-3.286l-8.203-0.548l-7.109-0.548l-2.187-3.285v-4.379l-2.187-6.568l-4.375-1.642
		l-10.937,0.547l-5.468,1.642L169.541,338.284z"/>
	<path class="st4" d="M192.516,390.855l-1.204-4.535l-3.673-8.901l-10.709-16.662l-1.352-4.747l-0.49-3.317l-1.774-6.325
		l-3.772-8.084l14.223-10.238l5.468-1.642l10.937-0.547l4.375,1.642l2.187,6.568v4.379l2.187,3.285l7.109,0.548l8.203,0.548
		l2.734,3.286l0.547,5.477l1.094,7.671l1.094,7.125l6.562,1.096l8.203,1.096l11.207,1.878l13.485,7.029l9.318,6.199l2.356,2.361
		l11.596,15.424l0.389,3.306l-1.883-0.357l-1.951,0.258l-2.086-0.175l-4.182-5.291l-0.239-1.456l-0.052-1.495l-0.758-1.253
		l0.213-1.505l-0.213-1.005l-1.313-0.612l-6.304,4.253l-3.082,0.109l-1.847,2.216l-0.171,2.873l0.866,2.733l-0.228,5.686
		l-3.762,4.762l-2.9,1.765l-6.247,2.224l-1.064,2.021l2.309,1.554l1.785,1.857l-1.027,1.429l0.903,1.004l1.131,0.803l1.951,1.795
		l0.649,2.043l-0.804,0.094l-0.483,0.595l0.462,3.019l-0.02,0.327l-0.574-0.309l-0.457-0.021l-0.965,0.23l-0.472,0.042l-0.521-0.151
		l-1.445-0.835l-1.282-0.183l-0.799,0.339l-0.724,0.538l-1.046,0.433l-2.132-0.512l-1.022-1.983l0.005-2.495l0.944-2.045
		l-7.482-2.04l-1.167,0.099l-1.712,0.923l-1.027,0.365l-1.012-0.005l-0.851-0.329l-4.83-3.704l-1.16-1.544l-0.376-2.159l0.005-1.883
		l-0.348-1.283l-1.001-0.834l-1.93-0.547l-0.799-0.506l-1.079-1.241l-0.789-0.407l-0.758-0.057l-0.682,0.073l-0.646-0.063
		l-0.669-0.438l-0.171-0.354l-0.166-0.918l-0.187-0.318l-0.446-0.261l-0.161,0.068l-0.13,0.198l-0.358,0.141l-0.581,0.125
		l-2.597,0.923l-0.387,0.255l-0.425,0.146l-0.646-0.104l-0.537-0.401l-0.949-1.272l-0.586-0.401h-1.209l-1.069,0.552l-1.022,0.73
		l-1.064,0.526l-2.109-0.016l-2.218-0.808l-2.073-1.23l-1.647-1.282l-3.396-3.596l-3.193-4.591l-2.511-4.991L192.516,390.855z"/>
	<path class="st0" d="M178.443,34.04l0.058-0.061l0.405-0.325l0.623,0.057l0.374,0.247l0.259,0.278l0.283,0.129l0.604-0.046
		l0.934-0.216l2.532-0.232l1.095,0.119l1.209,0.376l0.638-0.526l1.795-1.887l0.726-0.376l1.904-0.598L193.771,30l1.774,0.443
		l0.799,0.392h3.243h9.194h9.189h1.071h8.12h9.191h9.189h8.927h0.262h9.194h9.191h9.196h9.108l-0.923,23.254l-41.502,33.887
		l-2.937,1.24l-3.622,0.376l-0.643,0.887l0.301,1.454l0.083,0.988l-0.306,0.921l-0.358,0.377l-0.015,0.508l-2.202,1.045
		l-2.523,2.595l-3.481-0.138l-10.065-4.389l-2.296-0.351l-2.649,0.878l-3.355,0.527l-1.589-0.351l-7.416,12.64l-5.474,2.634
		l-1.766,4.916l2.296,2.458l2.472,2.107l0.614,3.149l-4.939,4.469l-0.929,1.288l-1.007,1.128l-1.323,0.696l0.335-0.595l-1.173-0.01
		l-2.345,0.65l-1.173,0.103l-0.661-0.196l-1.149-0.748l-0.617-0.227l-0.62,0.041l-0.501,0.196l-0.524,0.129l-0.669-0.145
		l-0.135-0.217l-0.14-0.815l-0.13-0.305l-0.218-0.145l-0.664-0.279l-3.261-1.94l-0.407-0.067l-0.7,0.258l-0.597,0.49l-0.994,1.362
		l-0.241,0.114l-0.007-0.019l-0.212-0.621l-0.436-0.428l-0.291-0.397l0.228-0.547l-0.913-0.248l-0.763-0.712l-1.256-1.615
		l-0.109-0.862l0.576-1.109l1.095-1.471l0.018-1.269l0.163-0.774l0.405-0.655l2.887-3.013l0.324-0.944l-1.152,0.423l-1.8,0.815
		l-1.058,0.346l-0.975-0.01l-0.558-0.537l0.195-1.228l0.41-0.619l1.199-1.13l0.482-0.624l0.218-0.526l0.41-1.584l1.904-4.607
		l0.672-1.057l1.663-2.079l0.97-0.567l1.069,0.134l1.089,0.309l1.051-0.057l0.563-0.469l0.716-1.341l0.576-0.449l0.649-0.088
		l0.539,0.17l2.62,1.284l0.41,0.098l0.456-0.124l0.363-0.206l0.701-0.17l0.776-0.444l0.843-0.371l0.654-0.469l0.519-0.934
		l0.213-1.016l-0.213-3.414l0.436-2.197l1.728-5.554l-0.42-1.449l-0.537-0.722l-0.765-0.763l-0.905-0.449l-0.939,0.201l0.662-2.903
		l-0.15-1.32l-1.505-0.237l0.249-0.402l0.306-0.325l0.815-0.634l-0.384-0.892l0.283-0.768l0.511-0.748l0.275-0.846l-0.4-2.001
		l-0.176-0.526l0.576-1.371l-0.125-0.459l-0.446-0.681l-0.114-0.258l0.016-0.536l0.648-3.934l0.042-1.284l-0.366-1.057l-1.193,0.454
		l-0.786-0.614l-0.482-1.124l-0.488-1.794l-0.223-0.382l-0.623-0.66l-0.83-1.103l-0.298-0.65l0.267-0.289l0.156-0.588l0.093-1.299
		l-0.285-1.304l-0.975-0.588l-0.986-0.139l-3.315-1.222l-0.462-0.278l-0.752-0.711l-0.529-0.371l-1.479-0.608l-0.649-0.485
		l-0.27-0.799l0.052-0.371l0.119-0.294l0.114-0.216l0.049-0.155l-0.101-0.407l-0.467-0.603l-0.296-1.015l-0.913-1.505l-0.306-0.727
		l-0.197-1.289l-0.213-0.309l-0.617-0.443l-0.208,0.057l-0.327,0.175l-0.4,0.062l-0.441-0.294l-0.083-0.299l0.135-0.299l0.189-0.284
		l0.106-0.294l-0.166-0.68l-0.732-0.5l-0.166-0.536L177.659,35l0.387-0.546L178.443,34.04z"/>
	<path class="st5" d="M678.696,506.134l-0.795,1.469l-1.598,1.599l-1.8,1.29l-3.253,1.133l-1.899,1.416l-2.968,2.937l-0.944,1.233
		l-0.586,0.572l-1.401,0.519l-6.278,4.901l-0.955,0.499l-5.178,2.21l-5.027,3.459l-1.271,0.536l-8.421,1.843l-3.871,0.289
		l-0.861,0.284l-0.794,0.436l-9.842,7.874l-1.173,0.641l-1.261,0.378l-1.333-0.016l-1.059-0.389l-2.044-1.114l-1.183-0.236
		l-1.546,0.699l-1.738,0.341l-6.563-0.005l-1.697,0.389l-1.344,1.172l-0.882,0.615l-1.048,0.263l-0.664,0.42l-1.997,1.903
		l-0.918,0.484l-0.555-0.021l-1.084-0.258l-0.602-0.063l-0.545,0.105l-1.017,0.473l-1.494,0.405l-0.804,0.683l-1.131,1.425
		l-4.945,3.349l-1.25,1.546l-0.028-0.016l-1.471-0.856l-3.979-0.999l-1.78-0.91l-2.771-2.907l-1.8-1.246l-2.319-0.363l-0.498,0.137
		l-1.11,0.463l-0.576,0.1l-0.597-0.163l-0.986-0.72l-0.488-0.163l-0.161-0.1l-0.265-0.468l-0.088-0.126l-0.306,0.005l-0.254,0.121
		l-0.156,0.147v0.079l-0.392-0.008l-0.002-0.008l-3.466-11.997l-1.572-10.319l8.784-0.627l1.764-1.183l2.47-3.712l3.108-3.145
		l13.344-5.501l4.493-0.346l1.583-0.763l1.712,0.055l1.453,1.017l1.951,0.551l3.507-0.288l0.929-1.038l1.375-1.001l3.881-1.772
		l2.335-0.773l4.161-2.314l2.034-0.849l1.65,0.346l0.332,1.604l0.623,1.355l2.221-0.446l0.509-2.133l0.56-1.171l1.619,0.1
		l1.551-0.749l1.282-1.43l1.266-0.207l1.23-0.039l3.85,2.452l1.665,4.649l0.711,0.907l0.809,0.537l1.463,3.555l2.049,1.085
		l1.66-1.542l1.178-1.785l-0.27-1.814l-1.292-1.101l-0.026-1.365l0.866-1.963l0.322-2.167l1.287-1.693l2.101-0.762l8.109-4.6
		l1.754-1.33l1.609-1l0.021,0.645l0.417,1.518l0.515-0.602l0.257-0.833l0.008-0.883l-0.253-0.779l-0.453-1.018l0.11-0.429
		l0.596-0.058l0.96,0.14l0.731,0.214l1.552,0.676l0.98,0.231l2.006,0.726l0.245-0.058l0.151,0.074l0.164,0.553l-0.094,0.656
		l-0.331,0.681l-0.159,0.742l0.413,0.85l0.151,0.47l-0.372,0.256l-0.486,0.214l-0.151,0.314l0.261,0.408l0.261,0.029l0.266-0.115
		l0.241-0.037l0.838,0.516l0.392,0.078l0.172-0.4l0.037-0.528l0.155-0.297l0.31-0.058l0.527,0.219l0.613,0.421l1.164,1.035
		l0.621,0.429l-0.008-0.462l0.086-0.322l0.135-0.272l0.131-0.359l0.396,0.272l0.298,0.074l0.302-0.095l0.404-0.252l-0.854-0.247
		l-2.602-1.101l1.712-2.112l0.666,0.214l0.29,0.573l0.151,0.705l0.266,0.619l0.441,0.359l1.128,0.544l0.519,0.445l0.274,0.45
		l1.618,3.61l0.507,0.47l0.127-0.087l1.691,0.338l0.241,0.095l1.622-0.47l0.233-1.003l-0.601-0.784l-0.882,0.177l-0.233-0.598
		l0.172-0.437l0.458-0.256l0.633-0.091l0.466,0.173l0.221,0.417l0.172,0.516l0.294,0.45l0.437,0.916l-0.462,0.813l-0.829,0.767
		l-0.641,0.796l0.319-0.029l0.666,0.054l0.319-0.025l-0.543,1.721l-0.073,0.557l0.135,0.384l0.282,0.384l0.233,0.471
		L678.696,506.134z"/>
	<path class="st3" d="M391.651,51.276l2.643,1.467l10.776,5.975l10.781,5.981l2.278,1.263l-0.001,0.01l-1.079,19.664l0.4,2.233
		l1.894,1.225l2.854,0.843l0.706,2.476l-0.747,2.942l-1.271,2.677l-1.411,0.451l-1.214,0.567l-2.075,5.842l-27.602,0.214
		l-1.847-0.81l-2.817-1.914l-1.271-0.07l-1.624,0.201l-1.437-0.725l-1.136-1.749l-1.38-1.599l-3.71-2.148l-1.655-1.209l-1.167-1.676
		l-1.157-0.676L368,92.46l-3.922-2.091l-1.764-0.005l-1.754-0.214l-3.212-2.955l-1.23,0.738l-0.342,1.741l-1.992,0.183l-3.398-0.196
		l-1.318,0.611l-1.982-1.096l0.021-0.472l-0.783-1.96l-1.484-1.413l-1.857-0.451l-1.873,0.928l-2.283,1.653l-0.472,0.222
		l-0.752,0.235l-0.669,0.567l-1.167,1.24l-1.987-0.99l-2.843-0.503l-3.014-0.098l-2.47,0.229l-1.385,0.518l-0.726,0.085
		l-0.316-0.433l-0.218-0.647l-0.539-0.513l-1.297-0.714l-1.422-0.521l-1.162,0.003l-0.996,0.518l-0.908,1.024l-0.4-0.585
		l-0.176-0.361l-0.109-0.418l0.047-0.518l0.457-0.688l0.182-0.526l-0.016-0.374l-0.093-0.534l-0.119-0.418l-0.114-0.008l0.218-0.526
		l0.104-0.054l0.114,0.147l0.249,0.062l1.411,0.062l-0.01-0.062l1.245,0.33l0.244,0.196l0.342-0.547l-0.016-0.691l-0.379-0.632
		l-0.752-0.361l0.591-0.557l0.763,0.541l0.685,0.977l0.363,0.743h0.342l-0.016-1.465l0.815,0.132l1.972,1.704l0.151-0.358
		l0.171-0.175l0.706-0.178l-1.401-2.045l1.385-1.289l1.582,0.449l3.263,2.204l2.33,0.016l0.384,0.155l0.337-0.694l0.591-0.665
		l0.223-0.722l-0.778-0.846l-0.4,0.227l-0.145,0.031l-0.135-0.095l-0.379-0.162l0.192-0.101h0.057l0.026-0.036l0.099-0.204
		l-1.997-0.482l-2.148-0.201l1.344-0.866l0.088-0.276l-0.405-0.56l-1.069-0.699l-0.291-0.402l0.332-0.603l-0.638-0.085l-0.555,0.031
		l-0.379,0.229l-0.14,0.505l-1.754,0.108l-1.992,1.382l-1.935,0.977l-1.583-1.104l1.219-0.75l0.187-0.088l-0.031-0.735l0.047-0.364
		l0.394-0.673l-0.706-1.039l-0.213-0.75l2.127-4.772l2.112-1.521l2.221,0.242l1.307,1.072l0.451-2.588l-0.124-2.769l0.239-2.73
		l-0.534-2.549l-6.107-2.377l-30.803,0.492l-0.851-0.732l0.923-23.254h0.081h6.192h2.999h9.186h9.194h7.697h1.492h8.818h0.376h9.186
		h4.114h3.824l0.208-0.026l0.778,0.026l0.099,1.304l0.674,0.438l1.863,0.144l3.762,2.088l10.776,5.979l10.781,5.974L391.651,51.276z
		"/>
	<path class="st1" d="M418.13,65.962l8.498,4.712l10.771,5.981l10.776,5.982l10.776,5.982l10.771,5.983l10.781,5.978l10.776,5.979
		l10.776,5.984l10.776,5.98l10.781,5.985l3.845,2.136l-0.031-0.007l-2.21-0.498l-4.145-1.705l-1.634-0.952l-1.816-0.212
		l-0.981,0.338l-0.867-0.315l-2.553,0.082l-2.319,1.527l-3.004,2.443l-1.266,1.319l-1.676,0.717l-3.352,0.98l-1.157,3.282
		l0.078,2.395l0.462,2.338l1.219,1.174l1.608,0.699l3.502,2.292l1.873,3.42l0.104,9.061l-1.749,0.656l-1.593,1.066l-0.934,1.306
		l-1.147,1.028l-3.772,0.041l-1.318,1.446l-1.235,1.65l-1.536,0.356l-0.949-1.673l-0.903-0.612l-0.929-0.256l-3.663,0.186
		l-0.358,0.382l0.005,0.519l-0.368,0.826l-0.991,0.341l-1.043,0.901l-0.97,0.199l-0.908,0.349l-2.999,3.915l-0.825,2.025
		l0.436,5.713l1.126,6.316l-0.068,2.862l-0.716,0.367l-0.825-0.333l-1.422-0.057l-1.375,0.437l-2.355,0.201l-2.257,0.437
		l-0.488,1.018l-2.333,0.297l-2.493-1.045l-11.341-16.365l-2.392-4.465l-1.65-2.347l-2.895,0.971l-2.433,3.197l-1.79,1.557
		l-1.333,1.681l-0.15,1.498l-1.022,0.284l-1.095-3.437l0.353-3.639l1.24-3.589l-0.664-2.37l-1.328-0.181l-0.296,3.478l-0.872,1.789
		l-5.961,1.583l0.156,1.919l-0.877,1.317l-2.267-0.307l-1.52-1.56l0.986-1.691l1.276-1.443l-1.567-0.658l-2.023-0.395l-1.946-1.048
		l-2.122,0.018l-3.331,3.344l-1.997,0.726l-1.749,1.198l-1.411,0.46l-1.541-0.021l-4.779,2.916l-0.467,0.612l-0.161,0.734
		l-0.701,0.744l-2.947,0.899l-1.738,0.925l-1.904,0.788l-1.733,0.93l-3.445-2.51l-3.165-2.869l-0.555-1.932l0.192-2.001l1.344-1.895
		l1.723-1.56l0.306-0.71l0.083-0.759l0.986-0.416l1.183,0.32l1.365-1.289l0.436-35.649l1.748,0.258l1.894,1.514l1.193,1.835
		l1.915,0.606l0.856-0.526l0.778-0.645l2.739-1.223l1.375-2.547l3.315-14.222l-0.431-4.823l2.075-5.842l1.214-0.567l1.411-0.451
		l1.271-2.677l0.747-2.942l-0.706-2.476l-2.854-0.843l-1.894-1.225l-0.4-2.233l1.079-19.664L418.13,65.962z"/>
	<path class="st6" d="M527.459,126.646l6.931,3.851l4.146,2.302l0.768,1.228l0.887,5.414l0.109,0.658l1.007,6.105l-0.913,0.067
		l-0.498,0.428l-0.176,0.697l0.073,0.893l-0.949,0.072l-1.193,0.635l-1.121,0.883l-0.732,0.805l-0.254,0.444l-0.239,0.558
		l-0.13,0.583l0.078,0.527l0.363,0.367l0.825,0.103l0.254,0.392l-0.202,0.826l-0.4,0.976l0.145,0.687l2.402-0.139l1.074,0.093
		l1.058,0.279l0.949,0.454l0.7,0.64l0.379,0.769l0.872,3.078l0.503,1.022l0.69,0.899l2.734,1.952l4.286,3.073l4.28,3.073
		l4.291,3.074l4.28,3.068l4.28,3.074l4.291,3.069l3.948,2.835l-0.005,0.006l-17.122,24.366l-2.267,1.564l-1.328-1.559l-1.095-0.954
		l-0.524-0.217l-0.996-0.194l-0.503-0.331l-0.695-0.277l-3.025-0.103l-1.126,0.15l-1.847,1.153l-1.147,0.184l-1.209-0.439
		l-3.481-2.647l-4.374-2.425l-1.162-0.158l-2.584-2.109l-1.666-2.835l-0.099-3.833l0.28-3.866l-0.109-1.607l0.036-1.558l0.752-1.824
		l-0.052-1.387l-0.301-1.349l-1.105-3.792l-0.607-1.02l-0.446-2.529l0.176-5.553l-0.887-2.224l-1.489-2.603l-1.852-3.137
		l-2.698-2.915l-1.551-3.653l0.202-0.95l-0.732-0.63l-1.468-0.088l-1.391-0.444l-0.617-0.906l-0.643-0.754l-0.991,0.093
		l-1.001,0.289l-1.333,1.332l-1.375-0.139l-1.271,0.121l-1.235,0.318l-0.104-9.061l-1.873-3.42l-3.502-2.292l-1.608-0.699
		l-1.219-1.174l-0.462-2.338l-0.078-2.395l1.157-3.282l3.352-0.98l1.676-0.717l1.266-1.319l3.004-2.443l2.319-1.527l2.553-0.082
		l0.867,0.315l0.981-0.338l1.816,0.212l1.634,0.952l4.145,1.705l2.21,0.498L527.459,126.646z"/>
	<path class="st2" d="M577.257,186.46l0.333,0.239l4.291,3.069l4.28,3.07l4.281,3.075l4.291,3.075l4.286,3.07l4.286,3.076
		l4.286,3.076l4.286,3.071l4.259,3.062l0.343,0.314l0.887,0.244l0.323,1.405l-0.274,1.621l-0.936,0.859l-1.369,0.684l1.107,0.444
		l0.756,0.065l0.437,0.277l0.127,1.108l-0.061,1.063l-0.188,0.868l-0.327,0.798l-1.601,2.709l-0.646,0.611l-0.29-0.733l0.172-0.99
		l0.323-0.969l0.164-0.949l-0.315-0.88l-0.886,2.578l-0.768,0.916l-1.091-0.077l0.87,1.344l0.135,0.497l0.176,2.843l-0.151,0.501
		l-0.343,0.216l-0.78-0.244l-0.433,0.187l-0.188,0.253l-0.498,0.97l-0.086,0.684l0.723-0.041l1.605-0.656l0.037,0.754l0.552,1.202
		l0.094,0.464l-0.204,0.367l-1.912,1.662l-0.327,0.428l-0.997,2.07l-1.536,2.298l-0.163,0.359l0.392,0.367l0.547-0.416l0.776-0.978
		l0.302,0.615l-2.173,6.281l-0.547,1.1l-0.699,0.929l-0.527,0.347l-0.58,0.281l-0.457,0.391l-0.151,0.685l0.217,0.424l0.396,0.188
		l0.347,0.306l0.069,0.795l-0.674,1.99l-1.446,2.94l-1.753,2.638l-1.642,1.044l0.686,0.31l-0.331,1.036l-0.041,2.333l-0.486,0.93
		l-0.637,0.799l-0.911,1.86l-1.111,1.677l-0.359,1.081l-0.188,1.171l-0.016,3.231l-0.212,0.49l-0.327,0.347l-0.282,0.437
		l-0.196,0.469l-0.037,0.168l-4.195-0.691l-0.82,0.653l-1.001,0.334l-0.695-0.135l-0.695,0.075l-0.903,0.938l-1.1,0.345
		l-2.879,1.244l-0.659-0.36l-0.721,0.181l-1.017,0.008l-0.892-0.35l-0.555,0.365l-0.503,0.42l-1.681-0.35l-0.856-0.508l-0.763-0.757
		l-1.598,0.088l-1.38-0.58l-1.313-1.84l-2.138-0.552l-1.873-0.681l-1.411-1.547l-3.149-1.562l-3.58-0.288l-1.292,0.622l-1.458,0.238
		l-3.404-0.775l-7.606,2.031l-0.809,0.741l-1.204-0.363l-0.752,0.629l0.068,1.404l-2.029,0.645l-2.63-0.135l-1.359,1.366
		l-1.209-1.034l-3.258-3.72l-0.586-2.303l-1.697-0.702l-0.872-0.098l-0.861-0.451l-0.778,0.085l-0.638-0.236l-0.13-0.363
		l-0.275-0.207l-1.598-0.536l-0.758,1.337l-0.913,5.754l-1.619,1.441l-1.816,0.736l-1.588,1.92l-2.132,1.578l-0.991,2.024
		l-1.344,1.335l-1.344-0.881l-1.131-1.205l0.005-0.474l-0.181-0.327l-0.192-1.311l1.038-1.474l-1.334-0.443l-1.515-0.775
		l-0.757-5.296l5.967-4.051l1.588-2.577l1.079-5.871l0.955-2.695l4.612-5.929l1.126-3.326l1.11-4.835l0.052-1.426l-0.415-1.312
		l0.42-1.164l7.393-8.898l2.771-2.481l2.501,0.005l2.439,0.812l2.983,0.704l3.087-0.722l2.501-0.833l3.435-0.724l0.882-0.044
		l1.323,0.957l1.391,0.784l2.418,0.093l-0.436-1.894l-0.84-1.288l-0.581-1.407l-0.353-1.635l-0.991-1.311l-0.695-2.139l0.031-2.415
		l0.394-3.307l2.506-2.635l2.267-1.564l17.122-24.366L577.257,186.46z"/>
	<path class="st0" d="M620.856,397.128l0.405,0.821l0.413,1.321l0.221,1.403l0.065,1.534l-0.335,2.921l0.155,1.42l1.675,1.716
		l0.629,1.166l0.437,1.297l0.208,1.141l-0.09,4.212l-0.286,0.985l1.757,0.497l0.298,0.316l0.143,0.402l0.204,0.353l0.547,0.156
		l1.005,0.074l0.302,0.296l0.025,0.624l0.212,1.068l0.441,0.826l0.552,0.374l0.6,0.263l0.65,0.452l0.429,0.707l0.576,1.766
		l0.552,0.813l1.414,1.068l0.302,0.46l-0.703,0.197l-0.596-0.037l-0.359-0.123l-0.735-0.563l-0.098-0.107l-0.964-0.896l-1.017-1.241
		l-0.764-0.444l-0.964,0.132l-0.564,0.23l-0.294,0.078l-0.208,0.144l-1.017,1.446l0.76,0.288l3.031-0.288l-0.666,0.822l-0.167,0.526
		l0.388,0.292l0.981,0.086l0.854,0.271l0.008,0.703l-0.294,0.999l-0.065,1.126l0.122,0.189l0.449,0.345l0.114,0.189l0.012,0.953
		l-0.012,0.082l-0.27,0.51l-0.041,0.181l0.106,0.123l0.237,0.09l0.229,0.156l0.114,0.304l-0.147,0.485l-0.29,0.329l-0.2,0.362
		l0.102,0.559l0.368,0.81v0.382l-0.208,0.506l0.711-0.152l0.866-0.411l0.809-0.51l0.556-0.46l0.605-0.041l0.727,0.666l2.161,2.734
		l0.858,1.451l0.241,1.558l-0.793,1.591l-0.037,0.358l0.294,0.415l0.38,0.419l0.221,0.378v0.563l-0.278,1.016l-0.065,0.489
		l0.159,1.678l-0.172,0.605l-0.674,0.856l-0.674,0.588l-0.441,0.099l-0.49-0.074l-0.797,0.078l-0.625,0.292l-0.257,0.469
		l0.012,0.703l0.159,0.979l0.449-0.222l0.572-0.103l1.038-0.049l0.123-0.555l0.253-0.214l0.494,0.251l0.319,0.333l0.172,0.136
		l0.208,0.049l0.556,0.234l0.082,0.527l-0.11,0.576l-0.012,0.391l0.343,0.465l1.201,1.103l0.425,0.996l0.592,2.758l0.527,0.766
		l0.678,0.478l-0.131,0.325l-0.4,0.317l-0.114,0.42l0.249,0.547l0.245,0.35l0.666,0.659l0.286,0.552l-0.172,1.029l0.458,0.98
		l-0.408,0.329l-1.013,0.387l-0.846,0.799l-0.225,0.428l0.409,0.189l1.994-0.045l0.376,0.045l0.163,0.362l0.396,1.367l0.315,0.519
		l0.825,0.601l0.392,0.379l0.335,0.577l0.335,1.438l-0.364,1.034l-0.944,0.494l-1.454-0.173l0.425,0.684l1.43,1.1l0.049,0.445
		l-0.539,0.358l-1.732,0.733l-1.544,0.379l-0.024,0.581l0.633,1.282l-0.098,0.944l-0.368,0.713l-0.584,0.573l-0.735,0.532
		l1.291-0.235l2.345-2.832l1.029,0.111l0.67,0.375l1.499-0.107l1.066,1.067l0.662,0.087l0.735-0.033l0.674,0.124l1.25,0.96
		l3.044,5.042l0.073,2.275l-1.609,1l-1.754,1.33l-8.109,4.6l-2.101,0.762l-1.287,1.693l-0.322,2.167l-0.866,1.963l0.026,1.365
		l1.292,1.101l0.27,1.814l-1.178,1.785l-1.66,1.542l-2.049-1.085l-1.463-3.555l-0.809-0.537l-0.711-0.907l-1.665-4.649l-3.85-2.452
		l-1.23,0.039l-1.266,0.207l-1.282,1.43l-1.551,0.749l-1.619-0.1l-0.56,1.171l-0.509,2.133l-2.221,0.446l-0.623-1.355l-0.332-1.604
		l-1.65-0.346l-2.034,0.849l-4.161,2.314l-2.335,0.773l-3.881,1.772l-1.375,1.001l-0.929,1.038l-3.507,0.288l-1.951-0.551
		l-1.453-1.017l-1.712-0.055l-1.583,0.763l-4.493,0.346l-13.344,5.501l-3.108,3.145l-2.47,3.712l-1.764,1.183l-8.784,0.627
		l-2.501-4.618l-1.116-1.254l-0.861-1.306l-0.716-2.381l-1.292-2.242l-0.337-1.12l-0.54-1.193l-1.235-2.053l-1.365-1.082
		l-1.515-0.852l-2.35-1.698l-27.872-6.794l-12.136-4.644l-2.48-2.116l0.15-3.644l-0.187-3.685l0.342-3.085l1.276-2.771l4.156-3.764
		l3.834-4.221l2.195-3.151l1.199-2.941l0.685-3.022l3.917-12.261l0.82-1.389l0.591-1.507l0.431-3.212l2.309-1.911l2.797-0.893
		l0.358-1.973l-1.484-2.169l0.431-3.15l-1.328-3.274l0.026-1.677l-0.711-4.575l0.322-1.468l2.174-4.435l1.162-3.874l0.151-1.118
		l0.026-1.066l-0.202-0.641l-0.867-1.551l0.399-1.475l1.017-1.303l1.022-1.024l0.866-1.17l1.427-2.592l0.965-1.229l0.301-0.198
		l0.716-0.247l0.368-0.258l0.249-0.359l0.239-0.708l0.737-1.021l0.607-1.458l1.738-2.745l0.389-0.432l0.7-0.313l0.913-0.255
		l0.789-0.411l0.337-0.773l0.156-0.789l0.384-0.661l1.276-1.492l0.161-0.323l0.068-0.359l0.01-0.502l0.114-0.45l0.275-0.305
		l0.337-0.273l0.306-0.349l1.022-1.757l0.571-0.705l0.804-0.664l1.302-0.726l0.41-0.336l0.322-0.445l0.498-0.981l0.322-0.403
		l7.015,5.327l2.547,1.549l5.951,2.07l6.19,1.351l2.791,1.414l4.618,4.049l2.449,1.675l3.71,3.54l0.815,4.773l0.82,2.051
		l2.859,0.089l2.335-1.412l1.069-2.785l1.297-2.105l3.502-0.781l0.965,0.294l0.477,0.742l0.841,0.292l3.139-0.667l6.247-2.089
		l9.744-2.13l2.506-0.083l1.868,1.479L620.856,397.128z"/>
	<path class="st3" d="M628.389,339.908l-0.4,0.532l-0.282,0.896l-0.118,0.806l-0.221,0.74l-0.58,0.691l-0.649,0.511l-0.315,0.127
		l-0.421,0.049l-0.392,0.155l0.049,0.376l0.225,0.446l0.139,0.393l-0.294,0.569l-0.694,0.131l-0.797-0.049l-0.617,0.037l0.49,0.81
		l0.498,0.561l0.339,0.642l0.004,1.08l-0.221,0.737l-0.445,1.031l-0.535,0.921l-1.328,1.22l-0.584,1.899l-0.882,5.543l0.057,1.032
		l0.208,1.04l0.641,1.613l0.172,0.942l-0.298,0.753l-0.172,0.713l0.76,1.839l-0.245,0.885l-2.235,2.601l1.536-0.34l1.095-1.249
		l0.719-1.671l0.425-1.622l0.776,0.635l0.601,0.684l0.073,0.721l-0.797,0.746l1.887-0.184l0.858,0.094l0.882,0.618l1.365,1.327
		l0.163,0.709l-0.327,1.245l-0.744,1.631l-0.065,0.619l0.539,1.758l0.049,1.967l0.221,0.902l0.772-0.475l0.257-0.242l-0.159,1.549
		l-0.625,1.422l-1.618,2.562l-1.667,4.53l-0.735,1.378l-0.343-0.164l-0.155,0.012l-0.163,0.086l-0.392,0.066l0.351,0.746
		l-0.114,1.804l0.139,0.89l-0.719-0.316l-0.008,0.402l-0.302,0.947l-0.817-0.898l-0.417-0.308l-0.478-0.144l0.396,0.734l0.024,0.591
		l-0.359,0.439l-0.748,0.275l0.232,0.471l-0.716-0.263l-1.868-1.479l-2.506,0.083l-9.744,2.13l-6.247,2.089l-3.139,0.667
		l-0.841-0.292l-0.477-0.742l-0.965-0.294l-3.502,0.781l-1.297,2.105l-1.069,2.785l-2.335,1.412l-2.859-0.089l-0.82-2.051
		l-0.815-4.773l-3.71-3.54l-2.449-1.675l-4.618-4.049l-2.791-1.414l-6.19-1.351l-5.951-2.07l-2.547-1.549l-7.015-5.327l0.399-0.497
		l0.145-0.565l0.125-1.153l0.555-2.131l0.145-0.281l0.296-0.367l0.176-0.172l0.182-0.094l0.187-0.416l0.285-0.424l0.218-0.229
		l-0.114-2.453l0.55-2.362l-0.016-2.629l0.405-2.522l1.494-1.342l1.935-0.663l4.462-0.853l1.837,0.203l1.754,0.437l2.516-0.468
		l2.449-0.848l8.083-1.386l0.27-1.83l-0.991-2.126l-2.174-6.244l1.224-3.736l1.422-1.844l1.868-1.125l1.992-0.236l1.11-2.135
		l1.816-2.257l1.256-2.545l-0.296-0.654l-0.488-0.569l-0.166-1.784l-0.939-0.737l-1.271,0.094l-0.768-0.514l-1.022-0.21
		l-0.763,0.304l-0.789,0.192l-0.602-0.27l-0.477-0.467l-0.892-0.553l-1.1,0.041l-1.956-2.791l0.467-2.954l1.287-2.99l-0.861-3.773
		l-0.887-0.182l-0.95,0.073l-0.55,0.275l-0.482,0.413l-1.167,0.208l-1.188-0.127l-5.028-1.876l-1.458-0.729l-1.448-0.205
		l-0.924-0.418l-0.477-1.134l-0.649-0.825l-0.488-0.814l0.192,0.029l0.047-1.103l0.913-0.999l1.276-2.954l1.043-7.673l-0.161-4.039
		l-0.913-1.094l-1.297-0.62l0.327-0.433l0.726-0.14l-1.157-0.205l-1.339-0.412l-0.742-1.083l-0.586-1.208l-1.282-1.659l-1.359-2.926
		l-0.903-0.956l-0.327-1.376l-0.078-1.433l-1.52-2.573l-2.376-1.801l7.606-2.031l3.404,0.775l1.458-0.238l1.292-0.622l3.58,0.288
		l3.149,1.562l1.411,1.547l1.873,0.681l2.138,0.552l1.313,1.84l1.38,0.58l1.598-0.088l0.763,0.757l0.856,0.508l1.681,0.35
		l0.503-0.42l0.555-0.365l0.892,0.35l1.017-0.008l0.721-0.181l0.659,0.36l2.879-1.244l1.1-0.345l0.903-0.938l0.695-0.075
		l0.695,0.135l1.001-0.334l0.82-0.653l4.195,0.691l-0.269,1.276l-0.478,1.02l-0.372,1.094l0.053,1.212l0.184,0.322l0.625,0.718
		l0.221,0.331l0.478,1.93l0.208,0.498l0.294,0.29l1.107,0.706l0.784,0.661l0.09,0.31l0.196,1.894l-0.123,1.204l-0.351,1.082
		l-0.596,0.731l0.384,1.249l0.172,2.813l0.629,1.249l0.547,0.396l0.617,0.318l0.519,0.343l0.217,0.486l0.078,0.539l0.221,0.564
		l0.327,0.519l0.404,0.429l0.29,0.208l0.253,0.102l0.658,0.033l0.343,0.147l0.172,0.327l0.143,0.351l0.229,0.237l0.633,0.114
		l1.393,0.074l0.543,0.31l0.511,0.192l0.543-0.192l-0.049-0.4l-0.437-0.192l-0.809-0.315l-0.989-0.653l1.438,0.441l1.046,0.466
		l2.778,2.622l1.654,1.985l-0.469,0.191l-0.856,0.965l-0.929,0.781l-0.918,2.226l-0.249,2.442l-0.638,2.187l-1.417,1.78l-0.114,0.75
		l1.209,0.075l0.633,0.542l0.021,0.955l0.379,1.736l1.416,0.893l0.259,0.999l0.451,1.075l-0.545,0.955l-1.001,0.589l-0.597,1.033
		l-0.254,1.207l-0.892,1.067l-0.607,1.189l0.597,0.545l0.965-0.343l1.032,0.969l1.162-0.74l0.674-1.129l1.022-0.776l0.768,0.351
		l0.903,0.306l0.763-0.647l0.441-0.883l0.726,0.104l0.789-0.07l1.152-1.662l1.681-0.195l0.649,0.057l0.726-0.07l1.25,0.169
		l1.297,0.374l1.401,1.602l1.1,1.797l0.078,7.129l0.669-0.208l0.576,0.774L628.389,339.908z M651.529,362.835l0.768,0.848
		l-0.082,1.622l-0.801,3.391l-1.43,3.269l-0.67,0.91l-0.098,0.373l0.008,0.32l-0.065,0.328l-0.343,1.033l-0.151,0.27l-0.437,0.59
		l-0.09,0.357l-0.245,0.602h-0.596l-1.389-0.41l-1.458,0.475l-0.637,1.09l-0.306,1.156l-0.478,0.68l-1.985,0.779l-1.017,0.23
		l-0.833,0.025l-1.013-0.41l-1.328-1.414l-0.809-0.615l0.47-0.111l0.85-0.033l0.425-0.172l0.008-0.139l0.131-0.361l0.163-0.328
		l0.073-0.012l0.114-0.381l0.286-0.09l0.343,0.025l0.286-0.09l2.165-2.094l0.727-1.151l-0.466-0.565l0.282-0.844l0.576-0.393
		l0.784-0.107l0.919,0.008l0.838-0.168l1.569-0.725l0.858-0.172l-0.278-0.406l-0.474-0.074l-1.299,0.135v-0.311l0.605-0.147
		l0.531-0.279l0.915-0.639l1.074-0.442l0.462-0.393l0.347-1.29l0.404-0.749l0.498-0.655l0.445-0.279l0.245-0.262l0.511-1.298
		L651.529,362.835z M643.816,380.815l1.612-0.178l1.134,0.059l0.239,0.712l-0.538,0.653l-2.089,2.314l-1.492,1.364l-0.835-0.059
		l-0.298-0.83l0.299-1.305l0.597-1.068L643.816,380.815z"/>
	<path class="st7" d="M613.049,308.775l1.324,0.944l0.392,0.429l0.756,1.291l0.445,0.462l0.854,0.511l0.425,0.372l0.335,0.568
		l0.2,0.654l0.069,0.638l0.311,1.25l0.748,1.373l0.907,0.67l0.809-0.866l0.221,1.455l-0.233,1.958l0.024,1.778l1.013,0.948
		l-0.033-0.916l-0.082-0.388l-0.225-0.413l0.919,0.057l0.727,0.282l1.43,0.863l0.768,0.204l1.52,0.135l0.629,0.348l0.744,0.266
		l1.838-0.021l0.359,0.286l0.213,0.691l0.923,1.214l0.421,1.484l2.402,3.164l0.159,0.348l-0.057,0.487l-0.245,0.307l-0.261,0.262
		l-0.123,0.319l0.429,3.206l-0.053,1.325l-0.752-0.07l-0.507,0.638l-0.38,1.362l-0.294,0.589l-0.56,0.442l-0.474-0.012l-0.359-0.446
		l-0.172-0.855l-2.108,1.468l-0.057,0.074l-0.037-0.039l-0.576-0.774l-0.669,0.208l-0.078-7.129l-1.1-1.797l-1.401-1.602
		l-1.297-0.374l-1.25-0.169l-0.726,0.07l-0.649-0.057l-1.681,0.195l-1.152,1.662l-0.789,0.07l-0.726-0.104l-0.441,0.883
		l-0.763,0.647l-0.903-0.306l-0.768-0.351l-1.022,0.776l-0.674,1.129l-1.162,0.74l-1.032-0.969l-0.965,0.343l-0.597-0.545
		l0.607-1.189l0.892-1.067l0.254-1.207l0.597-1.033l1.001-0.589l0.545-0.955l-0.451-1.075l-0.259-0.999l-1.416-0.893l-0.379-1.736
		l-0.021-0.955l-0.633-0.542l-1.209-0.075l0.114-0.75l1.417-1.78l0.638-2.187l0.249-2.442l0.918-2.226l0.929-0.781l0.856-0.965
		L613.049,308.775z"/>
	<path class="st7" d="M626.177,280.603l0.055,0.09l0.556,2.297l0.306,0.176l1.066,0.167l0.11,0.673l-0.127,0.612l-0.217,0.62
		l-0.11,0.678l0.025,0.8l0.098,0.608l0.204,0.559l0.359,0.616l-0.601,0.739l-0.257,0.408l-0.172,0.567l0.727-0.306l0.449,0.306
		l0.38,0.563l0.503,0.437l0.037-0.743l0.331-0.49l0.404-0.037l0.249,0.612l0.229-0.029l0.061-0.033v-0.086l0.061-0.196l0.809,0.208
		l0.008-1.045l-0.237-1.49l0.106-1.098l0.874,1.147l0.449,1.424l0.932,7.332l0.184,0.453l1.352,2.377l-0.229,2.169l-1.267,1.507
		l-1.797,0.6l-1.847-0.539l-0.727-0.649l-0.678-0.882l-0.49-1.005l-0.989-4.275l0.114-0.751l-1.128,0.343l0.008,0.543l0.47,0.661
		l0.306,0.682l-0.061,1.127l-0.245,0.274l-1.401-0.519l0.221-0.964l-0.286-0.772l-1.307-1.376l-1.577-2.425l-0.441-0.367l-0.052-0.3
		l-0.15-1.034l-0.882-0.928l-0.508-1.138l-0.088-1.28l0.306-3.934l-0.254-0.993l-0.078-1.013l3.647-0.246l1.92-1.265l0.28-0.168
		L626.177,280.603z"/>
	<path class="st5" d="M616.502,282.267l-0.589-1.969l0.221-2.815l-0.057-0.612l0.049-0.587l0.139-0.51l0.212-0.371l0.151,0.265
		l0.388,0.514l0.147,0.277l0.838-1.354l1.793-1.485l0.829-0.959l0.413-1.579l0.351-3.708l0.915-0.905l0.588,1.53l1.532,2.749
		l0.306,1.762l-0.355,2.109l-0.02,0.783l0.155,0.771l0.441,1.428l0.09,0.739l0.229,0.779l0.909,1.485l-0.004,0.002l-0.28,0.168
		l-1.92,1.265l-3.647,0.246l-1.816-0.163l-1.826,0.155L616.502,282.267z M617.916,269.011l-0.034,0.686l0.243,0.892l0.415,0.617
		l-0.345,0.514l0.311,0.651l0.001,0.994l-0.622,0.137l-0.553-0.034l-0.104-0.72l0.103-0.892l0.137-1.406l-0.139-1.029
		L617.916,269.011z"/>
	<path class="st5" d="M622.033,292.906l-0.384-0.318l-0.682,0.372v0.367l0.294,0.045l0.037,0.147l-0.041,0.22l0.053,0.273
		l-0.674-0.465l-0.212,0.784l0.176,1.131l0.539,0.58l-0.123,0.065l-0.078,0.11l-0.192,0.025l-0.466-0.2l-0.454-0.29l-0.172-0.192
		l-0.114-0.204l-2.533-2.911l-0.474-0.788l-0.641-2.253l-0.441-0.902l1.802-2.192l-0.409-2.898l-0.342-1.145l0.182,0.01l1.826-0.155
		l1.816,0.163l0.078,1.013l0.254,0.993l-0.306,3.934l0.088,1.28l0.508,1.138l0.882,0.928l0.15,1.034L622.033,292.906z"/>
	<path class="st1" d="M649.532,239.611l-0.013,2.359l-0.36,0.807l0.376,0.375l-0.601,0.701l-1.491,4.426l-0.384,0.538l-0.208,0.212
		l-0.073,0.318l-0.02,0.848l-0.229,0.66l-0.441,0.114l-0.29-0.404l0.245-0.893h-0.274l-0.339,0.815l-0.176,0.298l-0.237,0.257
		l0.167,0.53l-0.266,0.559l-0.564,0.518l-0.711,0.449l-0.482,0.13l-0.135-0.188l0.172-0.318l0.445-0.277v-0.375l-0.715,0.179
		l-0.539,0.334l-0.413,0.082l-0.359-0.595l-1.748,0.057l-0.727-0.236l-0.294-0.677l0.025-1.753l0.196-0.799l0.466-0.693l-0.31-0.538
		l0.629-0.106l1.765,0.302l-0.404-0.709l-1.05-1.28l-0.286-0.774l0.784,0.2l0.989,0.073l0.887-0.151l0.49-0.465l-0.576-0.13
		l-0.49-0.183l-0.404-0.281l-0.315-0.432l0.784,0.008l1.201-0.31l0.793-0.041l0.907,0.469l0.498-0.143l0.343-1.011l-1.013,0.375
		l-1.226-0.342l-2.288-1.434l-0.494,0.318l-0.613-0.188l-0.568-0.509l-0.376-0.648l0.539,0.22l0.355,0.257l0.339,0.098l0.474-0.232
		l0.482,0.147l1.708,0.257l0.932-0.029l-0.376-0.375l0.384-0.97l-0.188-0.827l0.461-0.24l1.453,0.041l0.415,0.58l-0.166,0.704
		l0.166,0.704l0.996,0.207l0.955-0.497L649.532,239.611z M635.453,250.24l0.441,0.233l0.735,0.466l0.53,0.729l0.589,0.904
		l0.793,0.291l0.764,0.203l0.5,0.641l-0.117,0.613l-1.351,0.089l-0.882-0.699l-0.765-0.903l-0.441-0.641l-0.588-0.612l-0.53-0.729
		L635.453,250.24z"/>
	<path class="st0" d="M643.84,238.584l-0.539-0.265l-0.678,0.701l0.262-1.019l0.143-0.322l-0.294-0.371l-0.392-0.244l-0.503-0.02
		l-0.596,0.322l0.114-0.554l0.078-0.228l0.184-0.301l-0.204-0.595l0.065-0.709l0.261-0.53l0.38-0.045l0.592,0.281l0.27-0.171
		l-0.041-0.432l-0.319-0.505l-0.433-0.253l-1.626-0.619l0.147-0.477l0.694-0.558l0.212-0.517l-0.719,0.342l-0.409-0.925l0.27-0.725
		l0.678-0.236l0.874,0.517l0.196-0.803l-0.564-0.468l-0.817-0.436l-0.564-0.684l-0.025-0.578l0.306-1.401l0.061-0.762l0.114,0.257
		l0.119,0.208l0.143,0.147l0.151,0.049l0.388,0.22l0.274,0.477l0.167,0.481l0.049,0.22l0.556-0.077l0.188-0.371l0.106-0.411
		l0.31-0.195l0.253,0.175l0.809,0.803l0.172,0.232l2.316,1.32l0.421,0.391l0.033,0.574l0.122,0.501l0.208,0.183l0.331-0.391
		l-0.037-0.403l-0.192-0.481l0.008-0.558l0.596-0.607l0.053,0.367l0.176,0.375l0.074,0.285l0.413-0.823l0.294-1.002l0.11-0.945
		l-0.098-0.652l0.678,0.44v1.022l-0.131,1.193l0.568,1.874l-0.564,0.904l-0.895,0.701l-0.678,0.334l0.249,0.888l-0.159,0.97
		l-0.306,0.982l-0.159,0.949l0.482,1.499l0.045,0.269l0.462-0.212l0.041-0.477l-0.09-0.489l0.082-0.249l0.637,0.277l0.082,0.88
		l-0.343,1.923l-0.003,0.592l-1.412,0.471l-0.955,0.497l-0.996-0.207l-0.166-0.704l0.166-0.704l-0.415-0.58l-1.453-0.041
		L643.84,238.584z"/>
	<path class="st4" d="M546.386,378.225l-0.322,0.403l-0.498,0.981l-0.322,0.445l-0.41,0.336l-1.302,0.726l-0.804,0.664l-0.571,0.705
		l-1.022,1.757l-0.306,0.349l-0.337,0.273l-0.275,0.305l-0.114,0.45l-0.01,0.502l-0.068,0.359l-0.161,0.323l-1.276,1.492
		l-0.384,0.661l-0.156,0.789l-0.337,0.773l-0.789,0.411l-0.913,0.255l-0.7,0.313l-0.389,0.432l-1.738,2.745l-0.607,1.458
		l-0.737,1.021l-0.239,0.708l-0.249,0.359l-0.368,0.258l-0.716,0.247l-0.301,0.198L529,400.155l-1.427,2.592l-0.866,1.17
		l-1.022,1.024l-1.017,1.303l-0.399,1.475l0.867,1.551l0.202,0.641l-0.026,1.066l-0.151,1.118l-1.162,3.874l-2.174,4.435
		l-0.322,1.468l0.711,4.575l-0.026,1.677l1.328,3.274l-0.431,3.15l1.484,2.169l-0.358,1.973l-2.797,0.893l-2.309,1.911l-0.431,3.212
		l-0.591,1.507l-0.82,1.389l-3.917,12.261l-3.736,1.095l-4.472,3.333l-1.614,0.721l-3.959,2.505l-3.336,2.994l-2.895,3.445
		l-4.031,3.498l-4.644,2.548l-3.409,0.092l-1.271-2.402l2.74-3.574l1.567-4.088l-2.023-3.692l-1.562-3.848l0.052-1.642l-0.654-1.417
		l-0.566,0.28l-1.038,0.293l0.021,2.277l-0.451,1.263l-2.221,3.14l-1.297,1.354l-0.291,0.225l-4.156,0.596l-3.061-0.518
		l-4.379,1.124l-1.339-0.8l-0.27-0.426l-0.462,0.131l-0.368-0.384l0.145-0.641l-2.21,0.628l-2.267,1.98l-0.467,1.368l-0.835,1.059
		l-1.78,0.12l-1.806-0.269l-6.994,0.259l-2.184-1.684l0.327-3.067l0.804-0.656l1.11-0.065l0.965-0.797l2.215-3.506l1.723-2.13
		l0.353-1.064l-0.467-1.069l0.202-1.599l0.763-1.552l2.034-1.85l0.773-2.539l-0.866-1.685l-0.566-1.779l-0.171-3.596l-0.233-1.029
		l-0.01-0.83l0.327-0.478l-0.176-0.478l-3.222,3.629l-2.963,2.771l-1.961,0.752l-2.034,0.486l-0.151-2.4l-0.69-2.298l-9.5-7.448
		l-3.44-5.232l-1.079-0.514l-0.835,0.705l-0.949,0.454l-0.607-1.978l0.187-3.592l-0.457-1.015l-0.908-0.428l-0.073-0.798l1.276-1.86
		l-0.057-2.243l-0.83-2.039l0.254-2.227l4.026-0.125l4.587,1.314l5.749,0.967l0.809,1.179l0.239,4.274l1.079,0.915l0.607-2.282
		l-0.078-2.402l1.868-6.424l1.489-1.421l4.649-2.145l3.564-3.192l1.883-5.229l3.456-4.301l3.886-3.599l4.395-2.674l1.863,0.391
		l1.619-0.404l2.911-0.443l0.867-1.471l-0.322-1.692l-0.27-0.828l-0.067-0.867l0.026-0.648l0.078-0.536l1.577-1.504l3.658-2.795
		l4.415-1.621l4.721,0.466l4.431,1.306l3.803-1.096l1.831-4.47l2.262-4.214l3.606-3.303l2.465-3.235l-1.048-0.242l-0.519,0.003
		l-0.166-0.026l-0.747-0.32l-2.516-0.242l-0.415,0.016l-0.685,0.242l-0.695,0.351l-0.778,0.127l-0.924-0.408l-0.374-0.458
		l-0.109-0.536l0.197-1.573l-0.047-0.179l-0.13-0.182l-0.291-0.231l-0.358-0.164l-0.747-0.169l-1.297-0.148l-1.001-0.406
		l-1.173-0.257l-0.202-0.125l-0.467-0.59l-0.872-0.712l-1.058-0.434l-2.288-0.538l-0.659-0.075l-1.115,0.2l-0.68,0.039l-1.479-0.663
		l-0.861-1.476l-1.121-5.081l1.852-1.915l0.379-2.351l-0.623-2.421l-0.316-2.468l0.633-2.27l2.143-4.475l4.12-2.542l0.249-2.248
		l-0.254-9.03l1.183-3.732l0.773-1.098l-0.026-1.251l-0.571-0.802l0.145-0.802l0.716,0.2l0.706,0.106l0.576-0.903l0.301-1.061
		l1.053-2.508l1.235-4.912l2.07-1.019l2.719-4.079l-1.365-11.824l0.073-2.871l1.499-2.428l2.682-0.876l7.31-5.853l0.757,5.296
		l1.515,0.775l1.334,0.443l-1.038,1.474l0.192,1.311l0.181,0.327l-0.005,0.474l1.131,1.205l1.344,0.881l1.344-1.335l0.991-2.024
		l2.132-1.578l1.588-1.92l1.816-0.736l1.619-1.441l0.913-5.754l0.758-1.337l1.598,0.536l0.275,0.207l0.13,0.363l0.638,0.236
		l0.778-0.085l0.861,0.451l0.872,0.098l1.697,0.702l0.586,2.303l3.258,3.72l1.209,1.034l1.359-1.366l2.63,0.135l2.029-0.645
		l-0.068-1.404l0.752-0.629l1.204,0.363l0.809-0.741l2.376,1.801l1.52,2.573l0.078,1.433l0.327,1.376l0.903,0.956l1.359,2.926
		l1.282,1.659l0.586,1.208l0.742,1.083l1.339,0.412l1.157,0.205l-0.726,0.14l-0.327,0.433l1.297,0.62l0.913,1.094l0.161,4.039
		l-1.043,7.673l-1.276,2.954l-0.913,0.999l-0.047,1.103l-0.192-0.029l0.488,0.814l0.649,0.825l0.477,1.134l0.924,0.418l1.448,0.205
		l1.458,0.729l5.028,1.876l1.188,0.127l1.167-0.208l0.482-0.413l0.55-0.275l0.95-0.073l0.887,0.182l0.861,3.773l-1.287,2.99
		l-0.467,2.954l1.956,2.791l1.1-0.041l0.892,0.553l0.477,0.467l0.602,0.27l0.789-0.192l0.763-0.304l1.022,0.21l0.768,0.514
		l1.271-0.094l0.939,0.737l0.166,1.784l0.488,0.569l0.296,0.654l-1.256,2.545l-1.816,2.257l-1.11,2.135l-1.992,0.236l-1.868,1.125
		l-1.422,1.844l-1.224,3.736l2.174,6.244l0.991,2.126l-0.27,1.83l-8.083,1.386l-2.449,0.848l-2.516,0.468l-1.754-0.437l-1.837-0.203
		l-4.462,0.853l-1.935,0.663l-1.494,1.342l-0.405,2.522l0.016,2.629l-0.55,2.362l0.114,2.453l-0.218,0.229l-0.285,0.424
		l-0.187,0.416l-0.182,0.094l-0.176,0.172l-0.296,0.367l-0.145,0.281l-0.555,2.131l-0.125,1.153l-0.145,0.565L546.386,378.225z"/>
	<path class="st3" d="M499.219,280.689l-1.499,2.428l-0.073,2.871l1.365,11.824l-2.719,4.079l-2.07,1.019l-1.235,4.912l-1.053,2.508
		l-0.301,1.061l-0.576,0.903l-0.706-0.106l-0.716-0.2l-0.145,0.802l0.571,0.802l0.026,1.251l-0.773,1.098l-1.183,3.732l0.254,9.03
		l-0.249,2.248l-4.12,2.542l-2.143,4.475l-0.633,2.27l0.316,2.468l0.623,2.421l-0.379,2.351l-1.852,1.915l-0.27-1.214l-0.316-0.72
		l-0.856-0.556l-1.204-0.242l-2.324,0.031l-1.349,0.434l-0.669,0.083l-0.628-0.325l-0.182-0.379l-0.14-0.99l-0.192-0.395
		l-0.28-0.377l-0.576-1.167l-0.379-0.366l-0.768-0.47l-0.254-0.226l-0.462-1.029l-0.348-1.135l-0.591-0.92l-1.173-0.379l-0.97-0.158
		l-4.54-1.802l-0.674-0.068l-1.1,0.06l-0.571-0.047l-0.4-0.2l-0.726-0.195l-2.906,0.696l-1.048-0.192l-1.987-0.686l-0.872-0.153
		l-0.747-0.33l-0.898-0.579l-0.509-0.122l-4.415-1.083l-1.614,0.117l-1.774-0.143l-3.585-1.968l-2.413-0.878l-2.418-0.267
		l-0.721-0.421l0.01-0.795l-0.628-1.01l-1.126-0.608l-2.355-0.802l-2.407-0.21l-1.681,0.275l-1.702,0.003l-1.432,0.363l-1.027,1.08
		l-5.059,0.784l-4.872-2.936l-0.233-5.339l-0.815-4.677l6.325-0.291l1.391-3.35l-0.887-8.597l0.519-4.51l0.835-1.6l0.021-1.807
		l-0.472-1.978l-1.017-1.773l-0.415-4.358l1.09-4.512l0.187-5.817l1.785-4.171l1.292-1.883l0.488-1.917l0.249-2.023l1.562-1.354
		l1.033-1.264l-0.56-1.45l-1.665-1.797l-1.271-2.079l-0.114-0.968l-0.218-0.81l-0.477-0.111l-0.358-0.311l-0.534-0.645l-0.747-0.474
		l-0.892-1.46l-0.617-1.579l-1.37-1.455l-1.157-1.667l-0.799-3.401l-0.908-1.962l-0.643-2.032l0.047-1.868l-0.156-1.861
		l-1.027-1.677l0.265-1.671l12.245-8.351l0.451-1.298l0.83-1.666l-0.202-1.764l0.674,0.078l0.612,0.295l4.597,0.422l2.62-0.44
		l1.105-1.779l3.45-6.974l2.547-4.007l0.477-1.908l-0.887-1.768l-0.28-0.799l-0.093-0.845l0.233-0.876l0.451-0.264l1.105,0.424
		l3.948-2.696l2.164-2.057l0.534-0.853l0.809-0.569l0.872,0.359l0.846,0.473l1.214-0.6l1.23-0.837l2.49,0.057l1.536-2.54
		l0.565-0.411l1.235-0.724l1.494-1.132l12.556-3.527l0.353,14.834l0.488,2.81l0.809,2.735l1.162,2.547l0.275,1.637l-0.586,10.173
		l-1.852,12.039l-1.074,3.514l-1.593,2.466l-1.095,2.684l0.545,3.158l-0.861,2.816l0.669,2.294l1.925,2.014l2.605,2.082l2.345,2.32
		l1.437,2.504l1.764,2.281l3.056,1.865l3.227,1.52l2.013,2.437l1.448,2.917l1.821,2.821l2.501,2.2l3.367,1.309L499.219,280.689z"/>
	<path class="st7" d="M509.212,273.96l-7.31,5.853l-2.682,0.876l-3.487-1.013l-3.367-1.309l-2.501-2.2l-1.821-2.821l-1.448-2.917
		l-2.013-2.437l-3.227-1.52l-3.056-1.865l-1.764-2.281l-1.437-2.504l-2.345-2.32l-2.605-2.082l-1.925-2.014l-0.669-2.294
		l0.861-2.816l-0.545-3.158l1.095-2.684l1.593-2.466l1.074-3.514l1.852-12.039l0.586-10.173l-0.275-1.637l-1.162-2.547l-0.809-2.735
		l-0.488-2.81l-0.353-14.834l-12.556,3.527l-1.494,1.132l-1.235,0.724l-0.565,0.411l-1.536,2.54l-2.49-0.057l-1.23,0.837l-1.214,0.6
		l-0.846-0.473l-0.872-0.359l-0.809,0.569l-0.534,0.853l-2.164,2.057l-3.948,2.696l-1.105-0.424l-0.451,0.264l-0.233,0.876
		l0.093,0.845l0.28,0.799l0.887,1.768l-0.477,1.908l-2.547,4.007l-3.45,6.974l-1.105,1.779l-2.62,0.44l-4.597-0.422l-0.612-0.295
		l-0.674-0.078l-2.994-1.143l-1.894-3.517l-2.942-0.515l-2.018-1.378l0.021-2.105l-0.477-1.98l-3.346-1.618l-1.842-4.046
		l-2.501-2.859l-3.419-2.016l-2.267-2.505l1.868-5.055l2.677-4.824l2.874-3.801l-0.13-1.488l-4.291-4.637l-1.847-3.776l1.733-0.93
		l1.904-0.788l1.738-0.925l2.947-0.899l0.701-0.744l0.161-0.734l0.467-0.612l4.779-2.916l1.541,0.021l1.411-0.46l1.749-1.198
		l1.997-0.726l3.331-3.344l2.122-0.018l1.946,1.048l2.023,0.395l1.567,0.658l-1.276,1.443l-0.986,1.691l1.52,1.56l2.267,0.307
		l0.877-1.317l-0.156-1.919l5.961-1.583l0.872-1.789l0.296-3.478l1.328,0.181l0.664,2.37l-1.24,3.589l-0.353,3.639l1.095,3.437
		l1.022-0.284l0.15-1.498l1.333-1.681l1.79-1.557l2.433-3.197l2.895-0.971l1.65,2.347l2.392,4.465l11.341,16.365l2.493,1.045
		l2.333-0.297l0.488-1.018l2.257-0.437l2.355-0.201l1.375-0.437l1.422,0.057l0.825,0.333l0.716-0.367l0.068-2.862l-1.126-6.316
		l-0.436-5.713l0.825-2.025l2.999-3.915l0.908-0.349l0.97-0.199l1.043-0.901l0.991-0.341l0.368-0.826l-0.005-0.519l0.358-0.382
		l3.663-0.186l0.929,0.256l0.903,0.612l0.949,1.673l1.536-0.356l1.235-1.65l1.318-1.446l3.772-0.041l1.147-1.028l0.934-1.306
		l1.593-1.066l1.749-0.656l1.235-0.318l1.271-0.121l1.375,0.139l1.333-1.332l1.001-0.289l0.991-0.093l0.643,0.754l0.617,0.906
		l1.391,0.444l1.468,0.088l0.732,0.63l-0.202,0.95l1.551,3.653l2.698,2.915l1.852,3.137l1.489,2.603l0.887,2.224l-0.176,5.553
		l0.446,2.529l0.607,1.02l1.105,3.792l0.301,1.349l0.052,1.387l-0.752,1.824l-0.036,1.558l0.109,1.607l-0.28,3.866l0.099,3.833
		l1.666,2.835l2.584,2.109l1.162,0.158l4.374,2.425l3.481,2.647l1.209,0.439l1.147-0.184l1.847-1.153l1.126-0.15l3.025,0.103
		l0.695,0.277l0.503,0.331l0.996,0.194l0.524,0.217l1.095,0.954l1.328,1.559l-2.506,2.635l-0.394,3.307l-0.031,2.415l0.695,2.139
		l0.991,1.311l0.353,1.635l0.581,1.407l0.84,1.288l0.436,1.894l-2.418-0.093l-1.391-0.784l-1.323-0.957l-0.882,0.044l-3.435,0.724
		l-2.501,0.833l-3.087,0.722l-2.983-0.704l-2.439-0.812l-2.501-0.005l-2.771,2.481l-7.393,8.898l-0.42,1.164l0.415,1.312
		l-0.052,1.426l-1.11,4.835l-1.126,3.326l-4.612,5.929l-0.955,2.695l-1.079,5.871l-1.588,2.577L509.212,273.96z"/>
	<path class="st6" d="M422.877,223.2l0.202,1.764l-0.83,1.666l-0.451,1.298l-12.245,8.351l-0.265,1.671l1.027,1.677l0.156,1.861
		l-0.047,1.868l0.643,2.032l0.908,1.962l0.799,3.401l1.157,1.667l1.37,1.455l0.617,1.579l0.892,1.46l0.747,0.474l0.534,0.645
		l0.358,0.311l0.477,0.111l0.218,0.81l0.114,0.968l1.271,2.079l1.665,1.797l0.56,1.45l-1.033,1.264l-1.562,1.354l-0.249,2.023
		l-0.488,1.917l-1.292,1.883l-1.785,4.171l-0.187,5.817l-1.09,4.512l0.415,4.358l1.017,1.773l0.472,1.978l-0.021,1.807l-0.835,1.6
		l-0.519,4.51l0.887,8.597l-1.391,3.35l-6.325,0.291l0.815,4.677l0.233,5.339l-2.013-0.615l-2.086-0.241l-2.081-0.522l-1.925-0.169
		l-0.758,0.732l-0.918,0.579l-1.001,0.387l-0.861,0.654l-2.138,1.207l-1.852,1.485l-0.576,4.863l-1.873,3.53l-14.771,3.068
		l-2.532,3.032l0.083,1.567l-0.986,0.816l-2.345,0.343l-2.34-0.104l-2.252-0.821l-2.304-0.021l-1.723,1.894l-1.546,2.159
		l-4.146,2.809l-4.405,2.451l-2.278-1.016l-2.091-1.484l-0.991-0.255l-0.82-0.478l-0.197-2.066l-0.892-2.1l-0.161-1.364
		l-0.638-1.159l-2.885-0.876l-0.981-1.005l-0.794-1.161l-1.188-2.218l-1.743-1.681l-2.138-0.8l-1.214-2.008l-0.384-2.742
		l-0.706-2.61l-1.147-1.649l-1.525-1.288l2.179-4.434l-0.29-5.318l0.332-5.33l-0.529-1.103l2.397-2.838l0.773-0.444l3.632-1.37
		l5.111-5.172l1.997-1.434l1.079-0.451l1.235-0.171l0.55-0.428l1.764-2.829l2.937-2.453l3.461-2.566l-0.197-1.62l-0.565-1.721
		l0.14-4.186l2.631-9.745l0.042-4.383l0.13-0.982l0.29-0.899l1.344-1.054l1.038-2.098l-0.156-2.253l-1.51-1.116l-1.1-1.302
		l2.221-3.371l3.263-2.752l1.868-1.898l1.406-2.174l-1.095-1.367l-4.452-4.467l-1.723-1.102l-1.613-1.304l-2.262-1.338l-2.553-0.942
		l-1.458-1.472l-0.498-2.117l-0.301-2.101l1.422-3.927l-0.431-1.958l-0.841-2.395l-0.031-2.514l1.8-4.828l-0.109-4.295l-0.555-4.23
		l1.084-4.563l5.961-7.671l2.169-4.639l2.584-4.423l1.167-0.984l1.603,0.543l1.582-0.155l0.368-1.584l0.488-0.801l0.4-0.902
		l0.176-2.188l1.914-1.638l3.046-0.785l1.271-1.356l1.5-1.108l1.795-0.54l1.831-0.374l8.535-3.438l0.638-1.064l1.344-1.092
		l1.806-0.333l3.165,2.869l3.445,2.51l1.847,3.776l4.291,4.637l0.13,1.488l-2.874,3.801l-2.677,4.824l-1.868,5.055l2.267,2.505
		l3.419,2.016l2.501,2.859l1.842,4.046l3.346,1.618l0.477,1.98l-0.021,2.105l2.018,1.378l2.942,0.515l1.894,3.517L422.877,223.2z"/>
	<path class="st2" d="M370.059,182.287l-0.176,2.188l-0.4,0.902l-0.488,0.801l-0.368,1.584l-1.582,0.155l-1.603-0.543l-1.167,0.984
		l-2.584,4.423l-2.169,4.639l-5.961,7.671l-1.084,4.563l0.555,4.23l0.109,4.295l-1.8,4.828l0.031,2.514l0.841,2.395l0.431,1.958
		l-1.422,3.927l0.301,2.101l0.498,2.117l1.458,1.472l2.553,0.942l2.262,1.338l1.613,1.304l1.723,1.102l4.452,4.467l1.095,1.367
		l-1.406,2.174l-1.868,1.898l-3.263,2.752l-2.221,3.371l1.1,1.302l1.51,1.116l0.156,2.253l-1.038,2.098l-1.344,1.054l-0.29,0.899
		l-0.13,0.982l-0.042,4.383l-2.631,9.745l-0.14,4.186l0.565,1.721l0.197,1.62l-3.461,2.566l-2.937,2.453l-1.764,2.829l-0.55,0.428
		l-1.235,0.171l-1.079,0.451l-1.997,1.434l-5.111,5.172l-3.632,1.37l-0.773,0.444l-2.397,2.838l0.529,1.103l-0.332,5.33l0.29,5.318
		l-2.179,4.434l-10.906,0.641l-4.042-0.922l-3.481-2.326l-4.099-1.207l-4.311,1.007l-1.588,0.563l-1.199,1.095l-1.691,1.07
		l-2.2-0.223l-1.25,0.504l-0.586,1.264l-3.227,5.159l-1.297,0.958l-3.414,0.579l-3.502-0.083l1.188-5.038l0.524-5.138l-0.317-5.233
		l0.244-5.221l1.458-4.631l2.952-3.725l1.411-0.83l1.007-1.299l0.488-0.897l0.296-0.954l-0.374-0.713l-0.451-0.677l-0.239-1.045
		l-0.867-0.487l-7.295-0.628l-2.06-0.783l-1.541-1.584l-1.831-2.891l-0.737-0.736l-0.488-0.215l-1.121-0.171l-0.944-0.695
		l-1.764-0.772l-0.524-0.353l-0.285-0.264l-0.529-0.783l-0.047-0.225l0.093-0.575l-0.047-0.228l-0.296-0.249l-0.638-0.101
		l-0.301-0.163l-0.685-0.498l-2.599-1.384l-1.198-0.943l-1.281-1.415l-1.167-1.708l-0.84-1.816l-0.887-3.371l-0.638-0.909
		l-0.327-0.832l0.036-2.466l-0.208-0.982l-0.358-0.422l-0.96-0.852l-0.4-0.466l-0.187-0.471l-0.156-0.565l-0.197-0.477l-0.301-0.199
		l-1.064-0.132l-2.89-0.894v-0.342l-0.783,0.412l-0.877-0.047l-2.324-0.451l-1.188-0.598l-0.182,0.047l-0.182,0.163l-0.218,0.096
		l-0.291-0.15l-0.472-0.523l-0.265-0.225l-0.296-0.093l-1.484,0.316l-1.11,0.751l-0.981,0.901l-1.064,0.769l-1.017,0.433
		l-0.389,0.254l-0.545,0.523l-0.285,0.347l-0.01,0.155l-0.649,0.142l-1.889,0.743l-0.56,0.326l-0.519,0.078l-3.751-1.14l-0.55,0.13
		l-0.524,0.777l-0.752-0.552l-0.866,0.062l-0.955,0.308l-1.012,0.181l-1.121-0.163l-0.981-0.422l-1.857-1.155l-0.929,0.358
		l-2.075-0.233l-0.949,0.388l-0.892,0.189l-0.732-0.754l-0.965-1.691l-0.986-0.35l-1.022,0.171l-1.012,0.357l-0.955,0.194
		l-0.669-0.148l-0.109-0.347l0.265-0.717l-0.052-0.3l-0.234-0.474l-0.057-0.254l0.342-1.15l-0.213-0.831l-0.187-0.477l-0.254-0.435
		l0.13-0.373l0.026-0.318l-0.156-0.334l-0.239-0.083l-0.7,0.031l-0.291-0.119l-3.331-2.519l-0.228-0.07l-0.176-0.155l-0.348-0.808
		l-0.145-0.596l0.031-0.582l1.437-0.797l0.135-1.245l3.886-1.033l3.616-0.813l0.934-1.74l-1.873-7.949l0.441-5.778l2.438-6.75
		l-0.218-1.34l-0.597-0.781l-0.327-0.83l0.316-0.171l2.496-1.891l1.152-0.385l0.353-0.22l0.223-0.339l0.197-0.786l0.192-0.336
		l0.897-0.553l2.309-1.076l0.405-0.605l-0.545-5.242l0.254-0.887l0.944-0.646l2.802-1.042l0.446-0.494l0.778-2.273l-0.898-3.798
		l-0.462-3.743l-0.607-1.228l-1.391,0.14l-0.353-2.267l-0.021-2.321l1.147-1.75l0.519-2.106l1.292-1.607l2.044-0.555l4.846,0.522
		l3.466-1.705l-0.28-1.4l-0.602-1.318l-0.965-0.589l-0.4-0.915l0.706-1.517l1.982-2.979l5.868,1.79l4.462,0.915l1.686,1.209
		l1.468,1.39l0.358,2.574l-0.13,2.716l0.202,2.579l0.716,2.468l-0.14,2.068l-0.379,1.905l3.741-1.734l4.12-3.122l4.171-0.804
		l4.099,1.277l1.904,1.166l2.013,0.954l1.806-0.377l1.287-1.613l0.778-0.602l0.176-1.078l-0.337-1.889l0.337-1.966l0.799-1.287
		l1.323-0.209l1.764-1.072l1.665,0.765l0.944,0.995l0.54,1.413l-0.057,0.938l0.083,0.84l1.204-0.044l4.872-1.424l0.924-2.656
		l-2.247-0.765l-1.012-0.884l-0.866-1.018l0.363-0.878l0.861-0.757l0.566-0.907l1.204-0.186l0.737-2.741l-0.55-2.857l2.755-0.909
		l3.227-1.384l0.716-0.723l0.866-0.436l3.58,0.772l2.413-1.036l2.039,0.677l2.272,1.896l3.004,0.251l2.672-0.127l4.457-2.092
		l5.806-1.392l2.802,0.726l3.414-0.005l1.385-0.493l2.895-0.726l2.807,0.635l0.228,1.279l0.996,0.77l1.66-0.263l1.723-0.046
		l3.762,1.279l3.014,0.093l1.593,0.214l1.328,0.821l1.027,1.374l1.365,0.969l1.645,0.442l1.603,0.034l1.141-0.333l0.975,0.39
		l0.773,0.723l1.012,0.289l1.8,0.127l1.717,0.705l1.38-0.034l0.659-1.204l1.152-0.625L370.059,182.287z"/>
	<path class="st5" d="M479.949,349.393l1.121,5.081l0.861,1.476l1.479,0.663l0.68-0.039l1.115-0.2l0.659,0.075l2.288,0.538
		l1.058,0.434l0.872,0.712l0.467,0.59l0.202,0.125l1.173,0.257l1.001,0.406l1.297,0.148l0.747,0.169l0.358,0.164l0.291,0.231
		l0.13,0.182l0.047,0.179l-0.197,1.573l0.109,0.536l0.374,0.458l0.924,0.408l0.778-0.127l0.695-0.351l0.685-0.242l0.415-0.016
		l2.516,0.242l0.747,0.32l0.166,0.026l0.519-0.003l1.048,0.242l-2.465,3.235l-3.606,3.303l-2.262,4.214l-1.831,4.47l-3.803,1.096
		l-4.431-1.306l-4.721-0.466l-4.415,1.621l-3.658,2.795l-1.577,1.504l-0.078,0.536l-0.026,0.648l0.067,0.867l0.27,0.828l0.322,1.692
		l-0.867,1.471l-2.911,0.443l-1.619,0.404l-1.863-0.391l-4.395,2.674l-3.886,3.599l-3.456,4.301l-1.883,5.229l-3.564,3.192
		l-4.649,2.145l-1.489,1.421l-1.868,6.424l0.078,2.402l-0.607,2.282l-1.079-0.915l-0.239-4.274l-0.809-1.179l-5.749-0.967
		l-4.587-1.314l-4.026,0.125l-0.254,2.227l0.83,2.039l0.057,2.243l-1.276,1.86l0.073,0.798l0.908,0.428l0.457,1.015l-0.187,3.592
		l0.607,1.978l-3.667,1.213l-4.76-0.282l-4.76-3.379l0.56-9.009l-12.039-4.221v-2.532l-7.108-2.153l0.586-3.292l-0.815-1.725
		l-1.074-1.566l-0.799-2.048l1.048-2.095l1.427-2.18l1.842-1.711l2.117-0.711l1.774-1.357l1.313-2.188l1.811-4.174l1.219-1.494
		l2.76-0.82l2.195-1.702l1.214-1.642l-1.38-1.398l-2.278-0.812l-2.418,0.2l-1.333-0.232l0.182-1.296l-0.498-1.525l-13.594-2.162
		l-2.143-0.7l-1.852-1.293l-7.43-1.753l-2.579-0.208l-23.358,1.173l-1.925-0.255l-0.726-1.467l0.436-2.052l0.918-1.857l1.365-1.802
		l1.147-1.95l1.375-3.229l1.001-1.204l0.716-1.396l-0.809-0.931l-1.292-0.86l4.405-2.451l4.146-2.809l1.546-2.159l1.723-1.894
		l2.304,0.021l2.252,0.821l2.34,0.104l2.345-0.343l0.986-0.816l-0.083-1.567l2.532-3.032l14.771-3.068l1.873-3.53l0.576-4.863
		l1.852-1.485l2.138-1.207l0.861-0.654l1.001-0.387l0.918-0.579l0.758-0.732l1.925,0.169l2.081,0.522l2.086,0.241l2.013,0.615
		l4.872,2.936l5.059-0.784l1.027-1.08l1.432-0.363l1.702-0.003l1.681-0.275l2.407,0.21l2.355,0.802l1.126,0.608l0.628,1.01
		l-0.01,0.795l0.721,0.421l2.418,0.267l2.413,0.878l3.585,1.968l1.774,0.143l1.614-0.117l4.415,1.083l0.509,0.122l0.898,0.579
		l0.747,0.33l0.872,0.153l1.987,0.686l1.048,0.192l2.906-0.696l0.726,0.195l0.4,0.2l0.571,0.047l1.1-0.06l0.674,0.068l4.54,1.802
		l0.97,0.158l1.173,0.379l0.591,0.92l0.348,1.135l0.462,1.029l0.254,0.226l0.768,0.47l0.379,0.366l0.576,1.167l0.28,0.377
		l0.192,0.395l0.14,0.99l0.182,0.379l0.628,0.325l0.669-0.083l1.349-0.434l2.324-0.031l1.204,0.242l0.856,0.556l0.316,0.72
		L479.949,349.393z"/>
	<path class="st1" d="M290.496,54.089l0.851,0.732l30.803-0.492l6.107,2.377l0.534,2.549l-0.239,2.73l0.124,2.769l-0.451,2.588
		l-1.307-1.072l-2.221-0.242l-2.112,1.521l-2.127,4.772l0.213,0.75l0.706,1.039l-0.394,0.673l-0.047,0.364l0.031,0.735l-0.187,0.088
		l-1.219,0.75l1.583,1.104l1.935-0.977l1.992-1.382l1.754-0.108l0.14-0.505l0.379-0.229l0.555-0.031l0.638,0.085l-0.332,0.603
		l0.291,0.402l1.069,0.699l0.405,0.56l-0.088,0.276l-1.344,0.866l2.148,0.201l1.997,0.482l-0.099,0.204l-0.026,0.036h-0.057
		l-0.192,0.101l0.379,0.162l0.135,0.095l0.145-0.031l0.4-0.227l0.778,0.846l-0.223,0.722l-0.591,0.665l-0.337,0.694l-0.384-0.155
		l-2.33-0.016l-3.263-2.204l-1.582-0.449l-1.385,1.289l1.401,2.045l-0.706,0.178l-0.171,0.175l-0.151,0.358l-1.972-1.704
		l-0.815-0.132l0.016,1.465h-0.342l-0.363-0.743l-0.685-0.977l-0.763-0.541l-0.591,0.557l0.752,0.361l0.379,0.632l0.016,0.691
		l-0.342,0.547l-0.244-0.196l-1.245-0.33l0.01,0.062l-1.411-0.062l-0.249-0.062l-0.114-0.147l-0.104,0.054l-0.218,0.526l0.114,0.008
		l0.119,0.418l0.093,0.534l0.016,0.374l-0.182,0.526l-0.457,0.688l-0.047,0.518l0.109,0.418l0.176,0.361l0.4,0.585l0.908-1.024
		l0.996-0.518l1.162-0.003l1.422,0.521l1.297,0.714l0.539,0.513l0.218,0.647l0.316,0.433l6.396,12.042l1.495,1.973l3.843,4.417
		l2.203,2.165l1.826,1.615l2.283,1.037l2.293,1.401l1.209,2.283l-0.171,1.419l-0.97,0.973l-1.007-0.057l-0.882,0.372l-1.914,1.483
		l-3.461-0.996l-1.375,0.877l-1.198,0.343l-0.846,0.756l-0.763,0.921l-1.193,0.292l-0.716,1.272l1.551,5.594l-0.426,2.018
		l-1.442,4.328l-0.337,2.374l-0.659,1.548l-1.256,1.169l-1.23,3.6l-2.74,1.647l-1.977,0.571l-2.153,0.294l-1.878-0.452l-1.743,0.617
		l-1.909,3.707l-3.31,1.541l-1.183-0.687l-0.986-0.963l-0.939-0.423l-1.027-0.129l-1.551-0.787l-1.64-0.493l-1.349-1.051
		l-0.799-1.833l-1.417-1.345l-1.551-1.159l-1.453,0.297l-1.65,0.524l-1.302-0.367l-1.012,0.596l-0.757,1.572l-1.479,0.697
		l-1.448-0.09l-0.358,1.373l-0.7,1.884l0.233,1.572l1.173,0.188l-0.057,1.386l-1.873-0.067l-4.021-2.432l-1.78-1.337l-0.021-2.553
		l0.368-2.783l-0.42-1.851l-1.1-1.471l4.334-11.861l-4.379-3.653l1.271-3.793l-8.758-5.057l2.684-5.057l-8.476-1.405l-1.554-2.107
		l-2.593-0.867l-2.069-1.381l-3.249-2.107l-3.814-1.966l-1.413-1.124l-0.847-1.545l0.141-1.264l-0.565-1.123l-0.988-0.948
		l-0.199-1.58l-0.398-2.568l-0.918-2.998L290.496,54.089z"/>
	<path class="st4" d="M416.184,104.894l0.431,4.823l-3.315,14.222l-1.375,2.547l-2.739,1.223l-0.778,0.645l-0.856,0.526
		l-1.915-0.606l-1.193-1.835l-1.894-1.514l-1.748-0.258l-0.436,35.649L399,161.605l-1.183-0.32l-0.986,0.416l-0.083,0.759
		l-0.306,0.71l-1.723,1.56l-1.344,1.895l-0.192,2.001l0.555,1.932l-1.806,0.333l-1.344,1.092l-0.638,1.064l-8.535,3.438
		l-1.831,0.374l-1.795,0.54l-1.5,1.108l-2.409-1.727l-2.128-1.986l-2.793-3.575l-2.128-4.898l-1.729-5.692l-1.596-2.647
		l-4.123-1.191l-4.654-0.132l-3.724-0.397l-2.394-1.456l-1.463-2.779l-1.463-0.662l-1.729,0.926l-1.862,0.397l-2.527-0.662
		l-4.389-2.117l-3.591-3.308l-2.394-2.117l-2.607-0.299l1.23-3.6l1.256-1.169l0.659-1.548l0.337-2.374l1.442-4.328l0.426-2.018
		l-1.551-5.594l0.716-1.272l1.193-0.292l0.763-0.921l0.846-0.756l1.198-0.343l1.375-0.877l3.461,0.996l1.914-1.483l0.882-0.372
		l1.007,0.057l0.97-0.973l0.171-1.419l-1.209-2.283l-2.293-1.401l-2.283-1.037l-1.826-1.615l-2.203-2.165l-3.843-4.417l-1.495-1.973
		l-6.396-12.042l0.726-0.085l1.385-0.518l2.47-0.229l3.014,0.098l2.843,0.503l1.987,0.99l1.167-1.24l0.669-0.567l0.752-0.235
		l0.472-0.222l2.283-1.653l1.873-0.928l1.857,0.451l1.484,1.413l0.783,1.96l-0.021,0.472l1.982,1.096l1.318-0.611l3.398,0.196
		l1.992-0.183l0.342-1.741l1.23-0.738l3.212,2.955l1.754,0.214l1.764,0.005L368,92.46l1.38,0.273l1.157,0.676l1.167,1.676
		l1.655,1.209l3.71,2.148l1.38,1.599l1.136,1.749l1.437,0.725l1.624-0.201l1.271,0.07l2.817,1.914l1.847,0.81L416.184,104.894z"/>
	<path class="st5" d="M225.874,198.278l-1.66-2.621l-1.074-2.594l-0.161-0.879l-0.597-0.747l-0.208-1.584l-0.41-1.535l0.14-2.467
		l1.665-4.617l0.275-2.428l-0.882-4.089l-3.03-6.627l-2.817-2.67l-1.219-3.13l-0.114-3.432l-0.462-1.725l-0.213-1.585l0.161-1.854
		l-0.861-1.693l-0.068-0.133l-0.005,0.017l-1.074-1.603l-0.924-1.719l-1.276-3.474l-0.566-3.595l-2.641-1.941l-0.949,0.601
		l-0.721,0.847l-0.612-0.01l-0.441-0.516l0.099-2.764l1.899-2.919l1.401-3.582l-0.109-3.775l-0.233-0.382l-0.405-0.17l-0.379-0.604
		l-0.057-0.782l-1.173-2.214l-2.112-0.836l-0.614-3.149l-2.472-2.107l-2.296-2.458l1.766-4.916l5.474-2.634l7.416-12.64l1.589,0.351
		l3.355-0.527l2.649-0.878l2.296,0.351l10.065,4.389l3.481,0.138l2.523-2.595l2.202-1.045l0.015-0.508l0.358-0.377l0.306-0.921
		l-0.083-0.988l-0.301-1.454l0.643-0.887l3.622-0.376l2.937-1.24l0.918,2.998l0.398,2.568l0.199,1.58l0.988,0.948l0.565,1.123
		l-0.141,1.264l0.847,1.545l1.413,1.124l3.814,1.966l3.249,2.107l2.069,1.381l2.593,0.867l1.554,2.107l8.476,1.405l-2.684,5.057
		l8.758,5.057l-1.271,3.793l4.379,3.653l-4.334,11.861l-1.624,0.323l-3.129,1.505l-1.489,1.208l-1.183,1.36l-0.809,1.662
		l-1.582-0.163l-1.297-1.061l-0.436-1.866l-1.515-1.04l-1.915,0.545l-1.562,1.242l-2.169,2.783l-1.06,3.338l0.706,5.096l0.883,4.921
		l-0.706,3.867l-4.591,0.352l-5.121,0.703l-5.297,2.461l-4.415,3.867l-2.825,4.219l-0.706,3.165l0.687,3.494l-1.982,2.979
		l-0.706,1.517l0.4,0.915l0.965,0.589l0.602,1.318l0.28,1.4l-3.466,1.705l-4.846-0.522l-2.044,0.555l-1.292,1.607l-0.519,2.106
		L225.874,198.278z"/>
	<path class="st7" d="M239.629,182.359l-0.687-3.494l0.706-3.165l2.825-4.219l4.415-3.867l5.297-2.461l5.121-0.703l4.591-0.352
		l0.706-3.867l-0.883-4.921l-0.706-5.096l1.06-3.338l2.169-2.783l1.562-1.242l1.915-0.545l1.515,1.04l0.436,1.866l1.297,1.061
		l1.582,0.163l0.809-1.662l1.183-1.36l1.489-1.208l3.129-1.505l1.624-0.323l1.1,1.471l0.42,1.851l-0.368,2.783l0.021,2.553
		l1.78,1.337l4.021,2.432l1.873,0.067l0.057-1.386l-1.173-0.188l-0.233-1.572l0.7-1.884l0.358-1.373l1.448,0.09l1.479-0.697
		l0.757-1.572l1.012-0.596l1.302,0.367l1.65-0.524l1.453-0.297l1.551,1.159l1.417,1.345l0.799,1.833l1.349,1.051l1.64,0.493
		l1.551,0.787l1.027,0.129l0.939,0.423l0.986,0.963l1.183,0.687l3.31-1.541l1.909-3.707l1.743-0.617l1.878,0.452l2.153-0.294
		l1.977-0.571l2.74-1.647l2.607,0.299l2.394,2.117l3.591,3.308l4.389,2.117l2.527,0.662l1.862-0.397l1.729-0.926l1.463,0.662
		l1.463,2.779l2.394,1.456l3.724,0.397l4.654,0.132l4.123,1.191l1.596,2.647l1.729,5.692l2.128,4.898l2.793,3.575l2.128,1.986
		l2.409,1.727l-1.271,1.356l-3.046,0.785l-1.914,1.638l-1.442-0.204l-1.152,0.625l-0.659,1.204l-1.38,0.034l-1.717-0.705l-1.8-0.127
		l-1.012-0.289l-0.773-0.723l-0.975-0.39l-1.141,0.333l-1.603-0.034l-1.645-0.442l-1.365-0.969l-1.027-1.374l-1.328-0.821
		l-1.593-0.214l-3.014-0.093l-3.762-1.279l-1.723,0.046l-1.66,0.263l-0.996-0.77l-0.228-1.279l-2.807-0.635l-2.895,0.726
		l-1.385,0.493l-3.414,0.005l-2.802-0.726l-5.806,1.392l-4.457,2.092l-2.672,0.127l-3.004-0.251l-2.272-1.896l-2.039-0.677
		l-2.413,1.036l-3.58-0.772l-0.866,0.436l-0.716,0.723l-3.227,1.384l-2.755,0.909l0.55,2.857l-0.737,2.741l-1.204,0.186
		l-0.566,0.907l-0.861,0.757l-0.363,0.878l0.866,1.018l1.012,0.884l2.247,0.765l-0.924,2.656l-4.872,1.424l-1.204,0.044l-0.083-0.84
		l0.057-0.938l-0.54-1.413l-0.944-0.995l-1.665-0.765l-1.764,1.072l-1.323,0.209l-0.799,1.287l-0.337,1.966l0.337,1.889
		l-0.176,1.078l-0.778,0.602l-1.287,1.613l-1.806,0.377l-2.013-0.954l-1.904-1.166l-4.099-1.277l-4.171,0.804l-4.12,3.122
		l-3.741,1.734l0.379-1.905l0.14-2.068l-0.716-2.468l-0.202-2.579l0.13-2.716l-0.358-2.574l-1.468-1.39l-1.686-1.209l-4.462-0.915
		L239.629,182.359z"/>
</g>
<g id="Copyright">
	<text transform="matrix(1 0 0 1 681.6426 577.5916)" class="st8 st9"> Vemaps.com</text>
</g>
</svg>
